<?xml version="1.0" encoding="UTF-8" standalone="no"?><!DOCTYPE svg PUBLIC "-//W3C//DTD SVG 1.1//EN" "http://www.w3.org/Graphics/SVG/1.1/DTD/svg11.dtd"><svg width="100%" height="100%" viewBox="0 0 2712 1028" version="1.1" xmlns="http://www.w3.org/2000/svg" xmlns:xlink="http://www.w3.org/1999/xlink" xml:space="preserve" xmlns:serif="http://www.serif.com/" style="fill-rule:evenodd;clip-rule:evenodd;stroke-miterlimit:2;"><g><g><path d="M447.567,486.694l-19.495,0l0,-113.416c0,-8.95 0.539,-19.861 1.622,-32.739l-0.461,0c-1.861,7.622 -3.522,13.072 -4.994,16.372l-56.75,129.783l-9.517,0l-56.866,-128.844c-1.556,-3.45 -3.212,-9.217 -4.995,-17.311l-0.461,0c0.622,6.755 0.928,17.75 0.928,32.978l0,113.177l-18.8,0l0,-168.888l25.761,0l51.067,117.777c3.872,8.95 6.383,15.706 7.544,20.256l0.811,0c3.872,-10.833 6.545,-17.745 8.011,-20.728l52.111,-117.305l24.484,0l0,168.888Z" style="fill:#fff;fill-rule:nonzero;"/><path d="M501.744,486.694l-19.033,0l0,-120.6l19.033,0l0,120.6Zm3.25,-163.822c0,3.617 -1.238,6.622 -3.716,9.011c-2.478,2.395 -5.411,3.589 -8.817,3.589c-3.483,0 -6.428,-1.15 -8.822,-3.472c-2.395,-2.317 -3.6,-5.361 -3.6,-9.128c0,-3.372 1.178,-6.3 3.539,-8.772c2.366,-2.478 5.322,-3.711 8.883,-3.711c3.556,0 6.539,1.217 8.933,3.65c2.395,2.439 3.6,5.383 3.6,8.833Z" style="fill:#fff;fill-rule:nonzero;"/><path d="M614.422,481.161c-9.211,5.65 -20.078,8.478 -32.616,8.478c-10.834,0 -20.567,-2.533 -29.189,-7.595c-8.628,-5.066 -15.345,-12.222 -20.134,-21.494c-4.8,-9.261 -7.194,-19.667 -7.194,-31.211c0,-19.939 5.628,-35.956 16.883,-48.05c11.261,-12.089 26.25,-18.139 44.972,-18.139c10.362,0 19.534,2.044 27.506,6.122l0,19.789c-8.9,-6.278 -18.333,-9.422 -28.317,-9.422c-12.3,0 -22.305,4.461 -30,13.367c-7.7,8.916 -11.55,20.433 -11.55,34.566c0,14.056 3.656,25.172 10.967,33.328c7.311,8.172 17.122,12.25 29.422,12.25c10.361,0 20.111,-3.45 29.25,-10.361l0,18.372Z" style="fill:#fff;fill-rule:nonzero;"/><path d="M699.233,385.644c-3.405,-2.588 -8.239,-3.883 -14.505,-3.883c-8.439,0 -15.289,4.028 -20.545,12.072c-5.261,8.05 -7.889,18.511 -7.889,31.384l0,61.477l-19.033,0l0,-120.6l19.033,0l0,24.85l0.462,0c2.627,-8.316 6.688,-14.9 12.188,-19.727c5.489,-4.828 11.795,-7.245 18.917,-7.245c4.95,0 8.739,0.556 11.372,1.65l0,20.022Z" style="fill:#fff;fill-rule:nonzero;"/><path d="M799.367,426.633c0,-15.155 -3.306,-26.772 -9.923,-34.866c-6.616,-8.084 -16.072,-12.128 -28.377,-12.128c-12.228,0 -21.895,4.144 -29.011,12.428c-7.123,8.283 -10.678,19.961 -10.678,35.033c0,14.456 3.578,25.733 10.733,33.861c7.156,8.128 16.811,12.189 28.956,12.189c12.377,0 21.861,-4.006 28.433,-12.011c6.578,-8.011 9.867,-19.511 9.867,-34.506Zm19.5,-0.711c0,19.167 -5.356,34.567 -16.073,46.228c-10.722,11.661 -25.088,17.489 -43.116,17.489c-17.567,0 -31.589,-5.672 -42.072,-17.017c-10.489,-11.339 -15.728,-26.283 -15.728,-44.816c0,-19.934 5.383,-35.7 16.133,-47.284c10.75,-11.578 25.572,-17.372 44.45,-17.372c17.639,0 31.45,5.594 41.433,16.783c9.984,11.189 14.973,26.523 14.973,45.989Z" style="fill:#fff;fill-rule:nonzero;"/><path d="M907.278,454.428c0,10.444 -3.961,18.922 -11.895,25.439c-7.933,6.516 -18.472,9.772 -31.627,9.772c-11.217,0 -21.05,-2.433 -29.478,-7.3l0,-20.728c9.361,7.695 19.655,11.539 30.872,11.539c15.083,0 22.628,-5.611 22.628,-16.839c0,-4.55 -1.467,-8.261 -4.411,-11.133c-2.939,-2.856 -9.628,-6.728 -20.078,-11.6c-10.517,-4.55 -17.945,-9.439 -22.283,-14.661c-4.334,-5.217 -6.495,-12.15 -6.495,-20.789c0,-9.967 3.945,-18.289 11.833,-24.967c7.895,-6.672 17.917,-10.011 30.062,-10.011c9.361,0 17.833,1.883 25.416,5.656l0,19.433c-7.733,-5.733 -16.711,-8.6 -26.922,-8.6c-6.272,0 -11.317,1.572 -15.15,4.711c-3.828,3.144 -5.744,7.183 -5.744,12.128c0,5.344 1.466,9.45 4.411,12.311c2.944,2.867 9.011,6.267 18.222,10.189c11.3,4.866 19.222,9.972 23.789,15.305c4.572,5.345 6.85,12.056 6.85,20.145Z" style="fill:#fff;fill-rule:nonzero;"/><path d="M1017.62,426.633c0,-15.155 -3.305,-26.772 -9.922,-34.866c-6.617,-8.084 -16.072,-12.128 -28.372,-12.128c-12.228,0 -21.895,4.144 -29.017,12.428c-7.122,8.283 -10.678,19.961 -10.678,35.033c0,14.456 3.584,25.733 10.734,33.861c7.155,8.128 16.816,12.189 28.961,12.189c12.372,0 21.861,-4.006 28.433,-12.011c6.572,-8.011 9.861,-19.511 9.861,-34.506Zm19.5,-0.711c0,19.167 -5.355,34.567 -16.072,46.228c-10.722,11.661 -25.089,17.489 -43.117,17.489c-17.566,0 -31.583,-5.672 -42.072,-17.017c-10.489,-11.339 -15.728,-26.283 -15.728,-44.816c0,-19.934 5.384,-35.7 16.134,-47.284c10.755,-11.578 25.577,-17.372 44.45,-17.372c17.644,0 31.455,5.594 41.433,16.783c9.983,11.189 14.972,26.523 14.972,45.989Z" style="fill:#fff;fill-rule:nonzero;"/><path d="M1115.1,325.111c-3.717,-2.122 -7.939,-3.183 -12.65,-3.183c-13.317,0 -19.967,8.522 -19.967,25.561l0,18.605l27.856,0l0,16.373l-27.856,0l0,104.227l-19.033,0l0,-104.227l-20.194,0l0,-16.373l20.194,0l0,-19.55c0,-12.25 3.556,-22.138 10.678,-29.677c7.111,-7.539 16.166,-11.306 27.155,-11.306c5.806,0 10.406,0.706 13.817,2.117l0,17.433Z" style="fill:#fff;fill-rule:nonzero;"/><path d="M1184.24,485.517c-4.572,2.589 -10.527,3.889 -17.872,3.889c-20.744,0 -31.1,-11.856 -31.1,-35.567l0,-71.372l-20.433,0l0,-16.373l20.433,0l0,-29.444l19.028,-6.239l0,35.683l29.944,0l0,16.373l-29.944,0l0,68.072c0,8.094 1.35,13.839 4.061,17.255c2.706,3.412 7.233,5.123 13.578,5.123c4.722,0 8.822,-1.295 12.305,-3.889l0,16.489Z" style="fill:#fff;fill-rule:nonzero;"/><path d="M554.9,601.861c0,-22.378 -13,-33.567 -38.994,-33.567l-22.867,0l0,69.25l20.428,0c13.377,0 23.633,-3.077 30.755,-9.244c7.111,-6.156 10.678,-14.972 10.678,-26.439Zm20.428,-1.061c0,16.339 -5.556,29.5 -16.656,39.517c-11.111,10.005 -25.678,15.011 -43.7,15.011l-21.933,0l0,63.955l-19.5,0l0,-168.889l45.728,0c17.789,0 31.583,4.417 41.377,13.25c9.784,8.834 14.684,21.223 14.684,37.156Z" style="fill:#fff;fill-rule:nonzero;"/><path d="M655.611,658.272l-28.783,4.122c-9.828,1.417 -16.711,3.795 -20.656,7.128c-3.944,3.339 -5.922,8.739 -5.922,16.195c0,6.05 2.122,10.894 6.383,14.544c4.256,3.65 9.711,5.478 16.367,5.478c9.433,0 17.233,-3.378 23.389,-10.128c6.15,-6.75 9.222,-15.194 9.222,-25.322l0,-12.017Zm19.033,61.011l-19.033,0l0,-18.844l-0.461,0c-8.283,14.528 -20.472,21.783 -36.561,21.783c-11.456,0 -20.622,-3.15 -27.506,-9.478c-6.889,-6.316 -10.327,-14.816 -10.327,-25.5c0,-22.45 13.072,-35.566 39.227,-39.333l35.628,-5.067c0,-20.405 -8.161,-30.622 -24.489,-30.622c-14.316,0 -27.239,4.917 -38.761,14.722l0,-19.783c3.483,-2.667 9.433,-5.244 17.872,-7.717c8.434,-2.472 15.934,-3.711 22.517,-3.711c27.928,0 41.894,15.045 41.894,45.111l0,78.439Z" style="fill:#fff;fill-rule:nonzero;"/><path d="M766.539,618.233c-3.406,-2.594 -8.239,-3.889 -14.506,-3.889c-8.433,0 -15.277,4.028 -20.544,12.073c-5.261,8.05 -7.889,18.516 -7.889,31.389l0,61.477l-19.033,0l0,-120.605l19.033,0l0,24.855l0.461,0c2.628,-8.322 6.689,-14.9 12.189,-19.727c5.494,-4.828 11.794,-7.245 18.917,-7.245c4.95,0 8.744,0.556 11.372,1.65l0,20.022Z" style="fill:#fff;fill-rule:nonzero;"/><path d="M855.233,718.106c-4.566,2.588 -10.527,3.883 -17.872,3.883c-20.739,0 -31.105,-11.85 -31.105,-35.567l0,-71.372l-20.428,0l0,-16.372l20.428,0l0,-29.439l19.033,-6.245l0,35.684l29.944,0l0,16.372l-29.944,0l0,68.072c0,8.095 1.35,13.839 4.067,17.256c2.7,3.416 7.227,5.122 13.577,5.122c4.717,0 8.817,-1.294 12.3,-3.883l0,16.489Z" style="fill:#fff;fill-rule:nonzero;"/><path d="M980.483,719.283l-19.033,0l0,-68.783c0,-25.511 -9.206,-38.278 -27.622,-38.278c-9.356,0 -17.189,3.595 -23.5,10.778c-6.306,7.183 -9.456,16.356 -9.456,27.5l0,68.783l-19.033,0l0,-120.605l19.033,0l0,20.022l0.461,0c8.895,-15.311 21.895,-22.967 38.995,-22.967c13.072,0 23.039,4.328 29.889,12.961c6.844,8.639 10.266,20.884 10.266,36.745l0,73.844Z" style="fill:#fff;fill-rule:nonzero;"/><path d="M1085.5,647.439c-0.156,-11.145 -2.806,-19.8 -7.95,-25.967c-5.144,-6.161 -12.4,-9.25 -21.756,-9.25c-8.822,0 -16.366,3.222 -22.633,9.661c-6.267,6.445 -10.217,14.956 -11.839,25.556l64.178,0Zm19.5,16.372l-83.911,0c0.305,13.583 3.85,23.967 10.622,31.15c6.761,7.183 16.145,10.778 28.145,10.778c13.461,0 25.722,-4.395 36.788,-13.195l0,18.023c-10.372,7.772 -24.138,11.655 -41.316,11.655c-16.945,0 -30.178,-5.55 -39.695,-16.661c-9.516,-11.105 -14.272,-26.472 -14.272,-46.111c0,-11.928 2.378,-22.822 7.139,-32.678c4.756,-9.855 11.311,-17.494 19.672,-22.911c8.356,-5.417 17.639,-8.128 27.85,-8.128c15.395,0 27.406,5.095 36.039,15.256c8.622,10.172 12.939,24.405 12.939,42.694l0,10.128Z" style="fill:#fff;fill-rule:nonzero;"/><path d="M1188.88,618.233c-3.4,-2.594 -8.239,-3.889 -14.505,-3.889c-8.439,0 -15.289,4.028 -20.545,12.073c-5.261,8.05 -7.894,18.516 -7.894,31.389l0,61.477l-19.033,0l0,-120.605l19.033,0l0,24.855l0.467,0c2.633,-8.322 6.688,-14.9 12.188,-19.727c5.489,-4.828 11.795,-7.245 18.917,-7.245c4.95,0 8.745,0.556 11.372,1.65l0,20.022Z" style="fill:#fff;fill-rule:nonzero;"/></g><path d="M1283.33,250l0,527.778" style="fill:none;stroke:#fff;stroke-width:2.22px;"/><path d="M1443.57,344.639c-6.25,3.555 -13.194,5.339 -20.833,5.339c-5.817,0 -11.011,-1.317 -15.578,-3.95c-4.544,-2.634 -8.044,-6.35 -10.505,-11.156c-2.462,-4.8 -3.689,-10.228 -3.689,-16.278c0,-9.544 3.022,-17.433 9.072,-23.65c6.044,-6.222 13.783,-9.333 23.216,-9.333c6.773,0 12.462,1.1 17.062,3.3l0,8.072c-5.039,-3.211 -10.995,-4.816 -17.884,-4.816c-4.544,0 -8.639,1.1 -12.283,3.294c-3.617,2.172 -6.45,5.256 -8.506,9.245c-2.027,3.994 -3.038,8.438 -3.038,13.327c0,7.839 2.055,14.034 6.161,18.578c4.139,4.511 9.766,6.767 16.883,6.767c4.833,0 9.044,-0.984 12.633,-2.95l0,-17.406l-13.627,0l0,-6.594l20.916,0l0,28.211Z" style="fill:#fff;fill-rule:nonzero;"/><path d="M1497.43,326.494c0,7.062 -2.011,12.745 -6.033,17.062c-3.994,4.277 -9.361,6.422 -16.1,6.422c-6.572,0 -11.822,-2.084 -15.756,-6.25c-3.905,-4.195 -5.861,-9.711 -5.861,-16.539c0,-7.35 2.011,-13.15 6.034,-17.406c4.022,-4.277 9.561,-6.422 16.622,-6.422c6.6,0 11.761,2.072 15.494,6.206c3.734,4.111 5.6,9.755 5.6,16.927Zm-7.288,0.262c0,-5.584 -1.245,-9.867 -3.734,-12.845c-2.461,-2.983 -5.989,-4.472 -10.594,-4.472c-4.573,0 -8.189,1.533 -10.85,4.6c-2.661,3.039 -3.989,7.333 -3.989,12.889c0,5.328 1.328,9.494 3.989,12.5c2.694,2.983 6.311,4.472 10.85,4.472c4.633,0 8.177,-1.478 10.633,-4.428c2.461,-2.95 3.695,-7.189 3.695,-12.716Z" style="fill:#fff;fill-rule:nonzero;"/><rect x="1508.44" y="283.094" width="7.122" height="65.794" style="fill:#fff;fill-rule:nonzero;"/><path d="M1567.54,348.889l-7.116,0l0,-7.55l-0.172,0c-3.3,5.761 -8.395,8.639 -15.278,8.639c-5.617,0 -10.089,-2.011 -13.417,-6.034c-3.328,-4.05 -4.989,-9.45 -4.989,-16.188c0,-7.35 1.839,-13.256 5.511,-17.712c3.706,-4.455 8.65,-6.683 14.845,-6.683c6.077,0 10.516,2.406 13.328,7.206l0.172,0l0,-27.473l7.116,0l0,65.795Zm-7.116,-20.095l0,-6.55c0,-3.677 -1.234,-6.727 -3.689,-9.161c-2.433,-2.427 -5.4,-3.644 -8.9,-3.644c-4.283,0 -7.683,1.589 -10.2,4.772c-2.517,3.156 -3.772,7.539 -3.772,13.15c0,5.095 1.183,9.133 3.555,12.111c2.372,2.95 5.573,4.428 9.595,4.428c3.905,0 7.116,-1.417 9.633,-4.256c2.517,-2.833 3.778,-6.45 3.778,-10.85Z" style="fill:#fff;fill-rule:nonzero;"/><path d="M1677.23,286.65l-17.583,62.239l-8.55,0l-12.8,-45.528c-0.494,-1.705 -0.811,-3.805 -0.956,-6.294l-0.172,0c-0.233,2.144 -0.622,4.211 -1.172,6.211l-12.894,45.611l-8.462,0l-18.188,-62.239l7.988,0l13.239,47.744c0.55,2.112 0.911,4.195 1.084,6.25l0.172,0c0.144,-1.766 0.578,-3.85 1.306,-6.25l13.799,-47.744l7.034,0l13.15,48.094c0.489,1.795 0.839,3.717 1.039,5.773l0.178,0c0.144,-1.506 0.533,-3.489 1.172,-5.95l12.716,-47.917l7.9,0Z" style="fill:#fff;fill-rule:nonzero;"/><path d="M1693.84,288.517c0,1.333 -0.461,2.444 -1.388,3.344c-0.923,0.867 -2.023,1.3 -3.295,1.3c-1.305,0 -2.405,-0.417 -3.3,-1.255c-0.9,-0.873 -1.344,-2 -1.344,-3.389c0,-1.245 0.433,-2.311 1.3,-3.211c0.9,-0.928 2.011,-1.389 3.344,-1.389c1.328,0 2.445,0.45 3.339,1.344c0.9,0.9 1.344,1.983 1.344,3.256Zm-1.211,60.372l-7.122,0l0,-44.445l7.122,0l0,44.445Z" style="fill:#fff;fill-rule:nonzero;"/><path d="M1743.92,348.889l-7.117,0l0,-25.345c0,-9.405 -3.444,-14.105 -10.333,-14.105c-3.5,0 -6.434,1.328 -8.811,3.994c-2.339,2.634 -3.512,6 -3.512,10.111l0,25.345l-7.122,0l0,-44.445l7.122,0l0,7.384l0.173,0c3.327,-5.645 8.189,-8.467 14.583,-8.467c4.889,0 8.606,1.595 11.156,4.778c2.572,3.183 3.861,7.694 3.861,13.539l0,27.211Z" style="fill:#fff;fill-rule:nonzero;"/><path d="M1794.83,348.889l-7.116,0l0,-7.55l-0.173,0c-3.3,5.761 -8.394,8.639 -15.277,8.639c-5.617,0 -10.089,-2.011 -13.417,-6.034c-3.322,-4.05 -4.989,-9.45 -4.989,-16.188c0,-7.35 1.839,-13.256 5.511,-17.712c3.706,-4.455 8.656,-6.683 14.845,-6.683c6.077,0 10.516,2.406 13.327,7.206l0.173,0l0,-27.473l7.116,0l0,65.795Zm-7.116,-20.095l0,-6.55c0,-3.677 -1.234,-6.727 -3.689,-9.161c-2.433,-2.427 -5.4,-3.644 -8.9,-3.644c-4.283,0 -7.683,1.589 -10.2,4.772c-2.517,3.156 -3.772,7.539 -3.772,13.15c0,5.095 1.183,9.133 3.555,12.111c2.372,2.95 5.572,4.428 9.595,4.428c3.905,0 7.116,-1.417 9.633,-4.256c2.517,-2.833 3.778,-6.45 3.778,-10.85Z" style="fill:#fff;fill-rule:nonzero;"/><path d="M1849.52,326.494c0,7.062 -2.011,12.745 -6.033,17.062c-3.995,4.277 -9.361,6.422 -16.1,6.422c-6.572,0 -11.822,-2.084 -15.756,-6.25c-3.905,-4.195 -5.861,-9.711 -5.861,-16.539c0,-7.35 2.011,-13.15 6.034,-17.406c4.022,-4.277 9.561,-6.422 16.622,-6.422c6.6,0 11.761,2.072 15.494,6.206c3.734,4.111 5.6,9.755 5.6,16.927Zm-7.289,0.262c0,-5.584 -1.244,-9.867 -3.733,-12.845c-2.461,-2.983 -5.989,-4.472 -10.594,-4.472c-4.567,0 -8.189,1.533 -10.85,4.6c-2.662,3.039 -3.989,7.333 -3.989,12.889c0,5.328 1.327,9.494 3.989,12.5c2.694,2.983 6.311,4.472 10.85,4.472c4.633,0 8.177,-1.478 10.633,-4.428c2.461,-2.95 3.694,-7.189 3.694,-12.716Z" style="fill:#fff;fill-rule:nonzero;"/><path d="M1916.53,304.444l-13.328,44.445l-7.378,0l-9.155,-31.811c-0.323,-1.1 -0.55,-2.461 -0.695,-4.078l-0.178,0c-0.083,1.011 -0.389,2.339 -0.911,3.989l-9.939,31.9l-7.116,0l-13.411,-44.445l7.466,0l9.156,33.423c0.289,1.155 0.494,2.489 0.605,3.994l0.351,0c0.055,-1.1 0.333,-2.461 0.822,-4.083l10.2,-33.334l6.511,0l9.244,33.512c0.289,1.127 0.495,2.455 0.611,3.988l0.345,0c0.055,-1.388 0.289,-2.716 0.694,-3.988l9.073,-33.512l7.033,0Z" style="fill:#fff;fill-rule:nonzero;"/><path d="M1949.07,337c0,3.85 -1.495,6.972 -4.473,9.372c-2.95,2.406 -6.889,3.606 -11.805,3.606c-4.195,0 -7.872,-0.9 -11.022,-2.695l0,-7.639c3.5,2.839 7.344,4.256 11.544,4.256c5.639,0 8.461,-2.067 8.461,-6.206c0,-1.677 -0.55,-3.038 -1.65,-4.083c-1.1,-1.067 -3.6,-2.5 -7.505,-4.294c-3.939,-1.678 -6.717,-3.473 -8.334,-5.384c-1.622,-1.939 -2.433,-4.5 -2.433,-7.683c0,-3.672 1.478,-6.739 4.428,-9.2c2.95,-2.456 6.7,-3.689 11.239,-3.689c3.505,0 6.672,0.695 9.505,2.083l0,7.162c-2.889,-2.112 -6.25,-3.167 -10.066,-3.167c-2.345,0 -4.239,0.578 -5.689,1.733c-1.417,1.161 -2.123,2.65 -2.123,4.472c0,1.967 0.55,3.489 1.65,4.556c1.095,1.044 3.367,2.289 6.812,3.733c4.222,1.795 7.188,3.678 8.9,5.645c1.705,1.966 2.561,4.439 2.561,7.422Z" style="fill:#fff;fill-rule:nonzero;"/><path d="M2011.56,348.889l-7.116,0l0,-6.945l-0.172,0c-3.095,5.356 -7.656,8.034 -13.673,8.034c-4.283,0 -7.711,-1.156 -10.289,-3.472c-2.572,-2.345 -3.861,-5.484 -3.861,-9.423c0,-8.272 4.889,-13.105 14.673,-14.494l13.322,-1.867c0,-7.522 -3.05,-11.283 -9.156,-11.283c-5.355,0 -10.189,1.805 -14.5,5.422l0,-7.289c1.306,-0.983 3.534,-1.922 6.689,-2.822c3.15,-0.928 5.956,-1.389 8.417,-1.389c10.444,0 15.666,5.545 15.666,16.622l0,28.906Zm-7.116,-22.478l-10.761,1.517c-3.678,0.522 -6.25,1.405 -7.728,2.65c-1.478,1.211 -2.211,3.194 -2.211,5.944c0,2.228 0.794,4.022 2.383,5.384c1.595,1.327 3.634,1.994 6.122,1.994c3.528,0 6.439,-1.244 8.723,-3.733c2.316,-2.489 3.472,-5.6 3.472,-9.334l0,-4.422Z" style="fill:#fff;fill-rule:nonzero;"/><path d="M2061.78,348.889l-7.116,0l0,-25.345c0,-9.405 -3.445,-14.105 -10.334,-14.105c-3.5,0 -6.438,1.328 -8.811,3.994c-2.339,2.634 -3.511,6 -3.511,10.111l0,25.345l-7.122,0l0,-44.445l7.122,0l0,7.384l0.172,0c3.328,-5.645 8.189,-8.467 14.584,-8.467c4.889,0 8.605,1.595 11.155,4.778c2.572,3.183 3.861,7.694 3.861,13.539l0,27.211Z" style="fill:#fff;fill-rule:nonzero;"/><path d="M2112.7,348.889l-7.117,0l0,-7.55l-0.172,0c-3.3,5.761 -8.394,8.639 -15.278,8.639c-5.616,0 -10.089,-2.011 -13.416,-6.034c-3.328,-4.05 -4.989,-9.45 -4.989,-16.188c0,-7.35 1.839,-13.256 5.511,-17.712c3.705,-4.455 8.65,-6.683 14.844,-6.683c6.078,0 10.517,2.406 13.328,7.206l0.172,0l0,-27.473l7.117,0l0,65.795Zm-7.117,-20.095l0,-6.55c0,-3.677 -1.233,-6.727 -3.689,-9.161c-2.433,-2.427 -5.4,-3.644 -8.899,-3.644c-4.284,0 -7.684,1.589 -10.2,4.772c-2.517,3.156 -3.773,7.539 -3.773,13.15c0,5.095 1.184,9.133 3.556,12.111c2.372,2.95 5.572,4.428 9.594,4.428c3.906,0 7.117,-1.417 9.634,-4.256c2.516,-2.833 3.777,-6.45 3.777,-10.85Z" style="fill:#fff;fill-rule:nonzero;"/><path d="M2198.64,316.989c0,6.339 -1.389,11.939 -4.167,16.8c-2.778,4.833 -6.728,8.561 -11.85,11.194c-5.123,2.606 -10.978,3.906 -17.578,3.906l-16.45,0l0,-62.239l17.189,0c21.905,0 32.856,10.117 32.856,30.339Zm-7.639,0.178c0,-15.945 -8.462,-23.917 -25.389,-23.917l-9.723,0l0,49.044l9.245,0c8.217,0 14.583,-2.183 19.094,-6.555c4.517,-4.395 6.773,-10.589 6.773,-18.572Z" style="fill:#fff;fill-rule:nonzero;"/><path d="M2245.33,328.45l-31.383,0c0.117,5.006 1.433,8.839 3.95,11.5c2.544,2.633 6.061,3.95 10.55,3.95c5.033,0 9.617,-1.622 13.755,-4.861l0,6.639c-3.877,2.866 -9.027,4.3 -15.449,4.3c-6.339,0 -11.284,-2.039 -14.845,-6.122c-3.561,-4.106 -5.339,-9.778 -5.339,-17.012c0,-4.4 0.884,-8.405 2.65,-12.022c1.789,-3.65 4.25,-6.466 7.378,-8.466c3.122,-1.995 6.594,-2.995 10.417,-2.995c5.755,0 10.239,1.883 13.455,5.645c3.239,3.733 4.861,8.966 4.861,15.711l0,3.733Zm-7.294,-6.033c-0.056,-4.111 -1.056,-7.295 -2.994,-9.55c-1.912,-2.284 -4.617,-3.428 -8.117,-3.428c-3.3,0 -6.117,1.189 -8.461,3.561c-2.345,2.372 -3.823,5.511 -4.428,9.417l24,0Z" style="fill:#fff;fill-rule:nonzero;"/><path d="M2290.67,304.444l-17.705,44.445l-7.034,0l-16.794,-44.445l7.855,0l11.284,32.25c0.611,1.712 1.1,3.795 1.478,6.25l0.216,0c0.261,-2.138 0.722,-4.15 1.389,-6.033l11.85,-32.467l7.461,0Z" style="fill:#fff;fill-rule:nonzero;"/><path d="M2306.64,288.517c0,1.333 -0.462,2.444 -1.389,3.344c-0.923,0.867 -2.023,1.3 -3.295,1.3c-1.305,0 -2.405,-0.417 -3.3,-1.255c-0.9,-0.873 -1.344,-2 -1.344,-3.389c0,-1.245 0.433,-2.311 1.3,-3.211c0.9,-0.928 2.011,-1.389 3.344,-1.389c1.328,0 2.445,0.45 3.339,1.344c0.9,0.9 1.345,1.983 1.345,3.256Zm-1.212,60.372l-7.122,0l0,-44.445l7.122,0l0,44.445Z" style="fill:#fff;fill-rule:nonzero;"/><path d="M2349.77,346.85c-3.444,2.083 -7.511,3.128 -12.194,3.128c-4.05,0 -7.7,-0.928 -10.939,-2.778c-3.211,-1.883 -5.717,-4.528 -7.511,-7.944c-1.789,-3.412 -2.689,-7.25 -2.689,-11.5c0,-7.35 2.1,-13.256 6.294,-17.712c4.222,-4.455 9.839,-6.683 16.839,-6.683c3.878,0 7.306,0.756 10.289,2.256l0,7.294c-3.328,-2.317 -6.861,-3.472 -10.594,-3.472c-4.6,0 -8.345,1.65 -11.239,4.95c-2.867,3.267 -4.295,7.505 -4.295,12.717c0,5.177 1.356,9.272 4.078,12.283c2.75,3.005 6.422,4.511 11.022,4.511c3.878,0 7.523,-1.272 10.939,-3.817l0,6.767Z" style="fill:#fff;fill-rule:nonzero;"/><path d="M2395.91,328.45l-31.383,0c0.116,5.006 1.433,8.839 3.95,11.5c2.544,2.633 6.061,3.95 10.55,3.95c5.033,0 9.616,-1.622 13.755,-4.861l0,6.639c-3.877,2.866 -9.028,4.3 -15.45,4.3c-6.339,0 -11.283,-2.039 -14.844,-6.122c-3.561,-4.106 -5.339,-9.778 -5.339,-17.012c0,-4.4 0.883,-8.405 2.65,-12.022c1.794,-3.65 4.25,-6.466 7.378,-8.466c3.122,-1.995 6.594,-2.995 10.417,-2.995c5.755,0 10.238,1.883 13.455,5.645c3.239,3.733 4.861,8.966 4.861,15.711l0,3.733Zm-7.294,-6.033c-0.056,-4.111 -1.056,-7.295 -2.995,-9.55c-1.911,-2.284 -4.616,-3.428 -8.117,-3.428c-3.299,0 -6.116,1.189 -8.461,3.561c-2.344,2.372 -3.822,5.511 -4.427,9.417l24,0Z" style="fill:#fff;fill-rule:nonzero;"/><path d="M2430.58,337c0,3.85 -1.495,6.972 -4.472,9.372c-2.95,2.406 -6.889,3.606 -11.806,3.606c-4.194,0 -7.872,-0.9 -11.022,-2.695l0,-7.639c3.5,2.839 7.344,4.256 11.544,4.256c5.639,0 8.461,-2.067 8.461,-6.206c0,-1.677 -0.55,-3.038 -1.65,-4.083c-1.1,-1.067 -3.6,-2.5 -7.505,-4.294c-3.939,-1.678 -6.717,-3.473 -8.334,-5.384c-1.622,-1.939 -2.433,-4.5 -2.433,-7.683c0,-3.672 1.478,-6.739 4.428,-9.2c2.95,-2.456 6.7,-3.689 11.239,-3.689c3.505,0 6.672,0.695 9.505,2.083l0,7.162c-2.889,-2.112 -6.25,-3.167 -10.066,-3.167c-2.345,0 -4.239,0.578 -5.689,1.733c-1.417,1.161 -2.122,2.65 -2.122,4.472c0,1.967 0.55,3.489 1.65,4.556c1.094,1.044 3.366,2.289 6.811,3.733c4.222,1.795 7.188,3.678 8.9,5.645c1.705,1.966 2.561,4.439 2.561,7.422Z" style="fill:#fff;fill-rule:nonzero;"/><path d="M1443.57,472.417c-6.25,3.555 -13.194,5.339 -20.833,5.339c-5.817,0 -11.011,-1.317 -15.578,-3.95c-4.544,-2.634 -8.044,-6.35 -10.505,-11.156c-2.462,-4.8 -3.689,-10.228 -3.689,-16.278c0,-9.544 3.022,-17.433 9.072,-23.65c6.044,-6.222 13.783,-9.333 23.216,-9.333c6.773,0 12.462,1.1 17.062,3.3l0,8.072c-5.039,-3.211 -10.995,-4.817 -17.884,-4.817c-4.544,0 -8.639,1.1 -12.283,3.295c-3.617,2.172 -6.45,5.255 -8.506,9.244c-2.027,3.995 -3.038,8.439 -3.038,13.328c0,7.839 2.055,14.033 6.161,18.578c4.139,4.511 9.766,6.767 16.883,6.767c4.833,0 9.044,-0.984 12.633,-2.95l0,-17.406l-13.627,0l0,-6.594l20.916,0l0,28.211Z" style="fill:#fff;fill-rule:nonzero;"/><path d="M1497.43,454.272c0,7.061 -2.011,12.745 -6.033,17.061c-3.994,4.278 -9.361,6.423 -16.1,6.423c-6.572,0 -11.822,-2.084 -15.756,-6.25c-3.905,-4.195 -5.861,-9.712 -5.861,-16.539c0,-7.35 2.011,-13.15 6.034,-17.406c4.022,-4.278 9.561,-6.422 16.622,-6.422c6.6,0 11.761,2.072 15.494,6.205c3.734,4.112 5.6,9.756 5.6,16.928Zm-7.288,0.261c0,-5.583 -1.245,-9.866 -3.734,-12.844c-2.461,-2.983 -5.989,-4.472 -10.594,-4.472c-4.573,0 -8.189,1.533 -10.85,4.6c-2.661,3.039 -3.989,7.333 -3.989,12.889c0,5.327 1.328,9.494 3.989,12.5c2.694,2.983 6.311,4.472 10.85,4.472c4.633,0 8.177,-1.478 10.633,-4.428c2.461,-2.95 3.695,-7.189 3.695,-12.717Z" style="fill:#fff;fill-rule:nonzero;"/><rect x="1508.44" y="410.872" width="7.122" height="65.794" style="fill:#fff;fill-rule:nonzero;"/><path d="M1567.54,476.667l-7.116,0l0,-7.55l-0.172,0c-3.3,5.761 -8.395,8.639 -15.278,8.639c-5.617,0 -10.089,-2.012 -13.417,-6.034c-3.328,-4.05 -4.989,-9.45 -4.989,-16.189c0,-7.35 1.839,-13.255 5.511,-17.711c3.706,-4.455 8.65,-6.683 14.845,-6.683c6.077,0 10.516,2.405 13.328,7.205l0.172,0l0,-27.472l7.116,0l0,65.795Zm-7.116,-20.095l0,-6.55c0,-3.678 -1.234,-6.728 -3.689,-9.161c-2.433,-2.428 -5.4,-3.644 -8.9,-3.644c-4.283,0 -7.683,1.589 -10.2,4.772c-2.517,3.155 -3.772,7.539 -3.772,13.15c0,5.094 1.183,9.133 3.555,12.111c2.372,2.95 5.573,4.428 9.595,4.428c3.905,0 7.116,-1.417 9.633,-4.256c2.517,-2.833 3.778,-6.45 3.778,-10.85Z" style="fill:#fff;fill-rule:nonzero;"/><path d="M1645.76,474.111c-4.567,2.428 -10.283,3.645 -17.139,3.645c-5.761,0 -10.866,-1.289 -15.322,-3.867c-4.455,-2.572 -7.9,-6.217 -10.333,-10.933c-2.4,-4.745 -3.6,-10.156 -3.6,-16.234c0,-6.339 1.344,-12.05 4.033,-17.144c2.694,-5.122 6.472,-9.1 11.333,-11.939c4.861,-2.833 10.311,-4.25 16.361,-4.25c5.873,0 10.762,0.85 14.667,2.561l0,7.722c-4.455,-2.489 -9.372,-3.728 -14.755,-3.728c-4.689,0 -8.856,1.084 -12.5,3.25c-3.645,2.173 -6.478,5.267 -8.506,9.289c-1.994,4.023 -2.995,8.623 -2.995,13.806c0,4.917 0.939,9.272 2.823,13.061c1.878,3.794 4.539,6.717 7.983,8.767c3.444,2.027 7.378,3.039 11.806,3.039c6.25,0 11.633,-1.389 16.144,-4.167l0,7.122Z" style="fill:#fff;fill-rule:nonzero;"/><rect x="1657.51" y="410.872" width="7.122" height="65.794" style="fill:#fff;fill-rule:nonzero;"/><path d="M1719.39,454.272c0,7.061 -2.011,12.745 -6.033,17.061c-3.995,4.278 -9.362,6.423 -16.1,6.423c-6.573,0 -11.823,-2.084 -15.756,-6.25c-3.905,-4.195 -5.861,-9.712 -5.861,-16.539c0,-7.35 2.011,-13.15 6.033,-17.406c4.022,-4.278 9.561,-6.422 16.622,-6.422c6.601,0 11.762,2.072 15.495,6.205c3.733,4.112 5.6,9.756 5.6,16.928Zm-7.289,0.261c0,-5.583 -1.244,-9.866 -3.733,-12.844c-2.462,-2.983 -5.989,-4.472 -10.595,-4.472c-4.572,0 -8.189,1.533 -10.85,4.6c-2.661,3.039 -3.989,7.333 -3.989,12.889c0,5.327 1.328,9.494 3.989,12.5c2.695,2.983 6.311,4.472 10.85,4.472c4.634,0 8.178,-1.478 10.634,-4.428c2.461,-2.95 3.694,-7.189 3.694,-12.717Z" style="fill:#fff;fill-rule:nonzero;"/><path d="M1766.3,476.667l-7.117,0l0,-7.028l-0.172,0c-2.95,5.411 -7.511,8.117 -13.673,8.117c-10.622,0 -15.927,-6.323 -15.927,-18.967l0,-26.567l7.116,0l0,25.439c0,9.345 3.589,14.017 10.761,14.017c3.534,0 6.395,-1.272 8.595,-3.817c2.2,-2.578 3.3,-5.922 3.3,-10.028l0,-25.611l7.117,0l0,44.445Z" style="fill:#fff;fill-rule:nonzero;"/><path d="M1818.21,476.667l-7.117,0l0,-7.55l-0.172,0c-3.3,5.761 -8.394,8.639 -15.278,8.639c-5.616,0 -10.088,-2.012 -13.416,-6.034c-3.328,-4.05 -4.989,-9.45 -4.989,-16.189c0,-7.35 1.839,-13.255 5.511,-17.711c3.706,-4.455 8.65,-6.683 14.844,-6.683c6.078,0 10.517,2.405 13.328,7.205l0.172,0l0,-27.472l7.117,0l0,65.795Zm-7.117,-20.095l0,-6.55c0,-3.678 -1.233,-6.728 -3.688,-9.161c-2.434,-2.428 -5.4,-3.644 -8.901,-3.644c-4.283,0 -7.683,1.589 -10.2,4.772c-2.516,3.155 -3.772,7.539 -3.772,13.15c0,5.094 1.184,9.133 3.556,12.111c2.372,2.95 5.572,4.428 9.594,4.428c3.906,0 7.117,-1.417 9.634,-4.256c2.516,-2.833 3.777,-6.45 3.777,-10.85Z" style="fill:#fff;fill-rule:nonzero;"/><path d="M1892.18,433.006c0,6.016 -2.083,10.877 -6.25,14.583c-4.139,3.678 -9.578,5.511 -16.322,5.511l-8.2,0l0,23.567l-7.295,0l0,-62.239l17.1,0c6.656,0 11.806,1.639 15.456,4.905c3.672,3.239 5.511,7.8 5.511,13.673Zm-7.639,0.388c0,-8.244 -4.861,-12.366 -14.583,-12.366l-8.55,0l0,25.522l7.638,0c5.006,0 8.839,-1.133 11.5,-3.389c2.661,-2.283 3.995,-5.539 3.995,-9.767Z" style="fill:#fff;fill-rule:nonzero;"/><rect x="1902.93" y="410.872" width="7.122" height="65.794" style="fill:#fff;fill-rule:nonzero;"/><path d="M1955.91,476.667l-7.117,0l0,-6.945l-0.172,0c-3.094,5.356 -7.655,8.034 -13.672,8.034c-4.283,0 -7.711,-1.156 -10.289,-3.473c-2.572,-2.344 -3.861,-5.483 -3.861,-9.422c0,-8.272 4.889,-13.105 14.672,-14.494l13.322,-1.867c0,-7.522 -3.05,-11.283 -9.155,-11.283c-5.356,0 -10.189,1.805 -14.5,5.422l0,-7.289c1.305,-0.983 3.533,-1.922 6.689,-2.822c3.15,-0.928 5.955,-1.389 8.416,-1.389c10.445,0 15.667,5.544 15.667,16.622l0,28.906Zm-7.117,-22.478l-10.761,1.517c-3.677,0.522 -6.25,1.405 -7.728,2.65c-1.477,1.211 -2.211,3.194 -2.211,5.944c0,2.228 0.795,4.022 2.384,5.383c1.594,1.328 3.633,1.995 6.122,1.995c3.528,0 6.439,-1.245 8.722,-3.734c2.317,-2.488 3.472,-5.6 3.472,-9.333l0,-4.422Z" style="fill:#fff;fill-rule:nonzero;"/><path d="M1989.86,476.233c-1.705,0.956 -3.933,1.434 -6.683,1.434c-7.756,0 -11.634,-4.367 -11.634,-13.106l0,-26.305l-7.638,0l0,-6.034l7.638,0l0,-10.85l7.123,-2.3l0,13.15l11.194,0l0,6.034l-11.194,0l0,25.088c0,2.978 0.505,5.106 1.516,6.378c1.011,1.245 2.706,1.867 5.078,1.867c1.767,0 3.3,-0.478 4.6,-1.428l0,6.072Z" style="fill:#fff;fill-rule:nonzero;"/><path d="M2021.25,417.122c-1.389,-0.783 -2.961,-1.172 -4.728,-1.172c-4.978,0 -7.466,3.139 -7.466,9.417l0,6.855l10.416,0l0,6.034l-10.416,0l0,38.411l-7.117,0l0,-38.411l-7.55,0l0,-6.034l7.55,0l0,-7.2c0,-4.516 1.328,-8.161 3.994,-10.939c2.661,-2.777 6.045,-4.166 10.156,-4.166c2.167,0 3.889,0.261 5.161,0.777l0,6.428Z" style="fill:#fff;fill-rule:nonzero;"/><path d="M2067.39,454.272c0,7.061 -2.011,12.745 -6.033,17.061c-3.995,4.278 -9.362,6.423 -16.1,6.423c-6.573,0 -11.823,-2.084 -15.756,-6.25c-3.906,-4.195 -5.861,-9.712 -5.861,-16.539c0,-7.35 2.011,-13.15 6.033,-17.406c4.022,-4.278 9.561,-6.422 16.622,-6.422c6.6,0 11.762,2.072 15.495,6.205c3.733,4.112 5.6,9.756 5.6,16.928Zm-7.289,0.261c0,-5.583 -1.244,-9.866 -3.733,-12.844c-2.461,-2.983 -5.989,-4.472 -10.595,-4.472c-4.572,0 -8.189,1.533 -10.85,4.6c-2.661,3.039 -3.989,7.333 -3.989,12.889c0,5.327 1.328,9.494 3.989,12.5c2.695,2.983 6.311,4.472 10.85,4.472c4.634,0 8.178,-1.478 10.634,-4.428c2.461,-2.95 3.694,-7.189 3.694,-12.717Z" style="fill:#fff;fill-rule:nonzero;"/><path d="M2101.58,439.428c-1.272,-0.956 -3.078,-1.428 -5.422,-1.428c-3.156,0 -5.717,1.489 -7.684,4.467c-1.966,2.95 -2.95,6.8 -2.95,11.544l0,22.656l-7.122,0l0,-44.445l7.122,0l0,9.161l0.172,0c0.984,-3.066 2.5,-5.483 4.556,-7.25c2.056,-1.794 4.411,-2.689 7.078,-2.689c1.85,0 3.266,0.2 4.25,0.606l0,7.378Z" style="fill:#fff;fill-rule:nonzero;"/><path d="M2172.44,476.667l-7.122,0l0,-25.517c0,-4.978 -0.766,-8.539 -2.3,-10.678c-1.5,-2.172 -4.05,-3.255 -7.639,-3.255c-3.033,0 -5.627,1.389 -7.766,4.166c-2.111,2.778 -3.167,6.089 -3.167,9.939l0,25.345l-7.122,0l0,-26.389c0,-8.706 -3.367,-13.061 -10.111,-13.061c-3.123,0 -5.7,1.316 -7.728,3.95c-2.022,2.605 -3.033,5.989 -3.033,10.155l0,25.345l-7.123,0l0,-44.445l7.123,0l0,7.034l0.172,0c3.155,-5.412 7.739,-8.117 13.755,-8.117c2.895,0 5.5,0.811 7.817,2.433c2.311,1.617 3.917,3.889 4.817,6.811c3.3,-6.161 8.216,-9.244 14.755,-9.244c9.784,0 14.672,6.05 14.672,18.144l0,27.384Z" style="fill:#fff;fill-rule:nonzero;"/><path d="M1443.57,600.194c-6.25,3.556 -13.194,5.339 -20.833,5.339c-5.817,0 -11.011,-1.316 -15.578,-3.95c-4.544,-2.633 -8.044,-6.35 -10.505,-11.155c-2.462,-4.8 -3.689,-10.228 -3.689,-16.278c0,-9.544 3.022,-17.433 9.072,-23.65c6.044,-6.222 13.783,-9.333 23.216,-9.333c6.773,0 12.462,1.1 17.062,3.3l0,8.072c-5.039,-3.211 -10.995,-4.817 -17.884,-4.817c-4.544,0 -8.639,1.1 -12.283,3.295c-3.617,2.172 -6.45,5.255 -8.506,9.244c-2.027,3.995 -3.038,8.439 -3.038,13.328c0,7.839 2.055,14.033 6.161,18.578c4.139,4.511 9.766,6.766 16.883,6.766c4.833,0 9.044,-0.983 12.633,-2.95l0,-17.405l-13.627,0l0,-6.595l20.916,0l0,28.211Z" style="fill:#fff;fill-rule:nonzero;"/><path d="M1497.43,582.05c0,7.061 -2.011,12.744 -6.033,17.061c-3.994,4.278 -9.361,6.422 -16.1,6.422c-6.572,0 -11.822,-2.083 -15.756,-6.25c-3.905,-4.194 -5.861,-9.711 -5.861,-16.539c0,-7.35 2.011,-13.15 6.034,-17.405c4.022,-4.278 9.561,-6.422 16.622,-6.422c6.6,0 11.761,2.072 15.494,6.205c3.734,4.111 5.6,9.756 5.6,16.928Zm-7.288,0.261c0,-5.583 -1.245,-9.867 -3.734,-12.844c-2.461,-2.984 -5.989,-4.473 -10.594,-4.473c-4.573,0 -8.189,1.534 -10.85,4.6c-2.661,3.039 -3.989,7.334 -3.989,12.889c0,5.328 1.328,9.495 3.989,12.5c2.694,2.984 6.311,4.473 10.85,4.473c4.633,0 8.177,-1.478 10.633,-4.428c2.461,-2.95 3.695,-7.189 3.695,-12.717Z" style="fill:#fff;fill-rule:nonzero;"/><rect x="1508.44" y="538.65" width="7.122" height="65.794" style="fill:#fff;fill-rule:nonzero;"/><path d="M1567.54,604.444l-7.116,0l0,-7.55l-0.172,0c-3.3,5.762 -8.395,8.639 -15.278,8.639c-5.617,0 -10.089,-2.011 -13.417,-6.033c-3.328,-4.05 -4.989,-9.45 -4.989,-16.189c0,-7.35 1.839,-13.255 5.511,-17.711c3.706,-4.456 8.65,-6.683 14.845,-6.683c6.077,0 10.516,2.405 13.328,7.205l0.172,0l0,-27.472l7.116,0l0,65.794Zm-7.116,-20.094l0,-6.55c0,-3.678 -1.234,-6.728 -3.689,-9.161c-2.433,-2.428 -5.4,-3.645 -8.9,-3.645c-4.283,0 -7.683,1.589 -10.2,4.773c-2.517,3.155 -3.772,7.539 -3.772,13.15c0,5.094 1.183,9.133 3.555,12.111c2.372,2.95 5.573,4.428 9.595,4.428c3.905,0 7.116,-1.417 9.633,-4.256c2.517,-2.833 3.778,-6.45 3.778,-10.85Z" style="fill:#fff;fill-rule:nonzero;"/><path d="M1653.49,572.544c0,6.339 -1.389,11.939 -4.167,16.8c-2.778,4.834 -6.728,8.562 -11.85,11.195c-5.122,2.605 -10.977,3.905 -17.578,3.905l-16.45,0l0,-62.238l17.189,0c21.906,0 32.856,10.116 32.856,30.338Zm-7.639,0.178c0,-15.944 -8.461,-23.916 -25.389,-23.916l-9.722,0l0,49.044l9.244,0c8.217,0 14.584,-2.183 19.095,-6.556c4.516,-4.394 6.772,-10.588 6.772,-18.572Z" style="fill:#fff;fill-rule:nonzero;"/><path d="M1696.27,604.444l-7.117,0l0,-6.944l-0.172,0c-3.095,5.356 -7.656,8.033 -13.672,8.033c-4.284,0 -7.712,-1.155 -10.289,-3.472c-2.573,-2.344 -3.861,-5.483 -3.861,-9.422c0,-8.272 4.888,-13.106 14.672,-14.495l13.322,-1.866c0,-7.522 -3.05,-11.284 -9.156,-11.284c-5.355,0 -10.188,1.806 -14.5,5.423l0,-7.289c1.306,-0.984 3.534,-1.922 6.689,-2.822c3.15,-0.928 5.956,-1.389 8.417,-1.389c10.444,0 15.667,5.544 15.667,16.622l0,28.905Zm-7.117,-22.477l-10.761,1.516c-3.678,0.523 -6.25,1.406 -7.728,2.65c-1.478,1.211 -2.211,3.195 -2.211,5.945c0,2.228 0.794,4.022 2.383,5.383c1.595,1.328 3.634,1.995 6.122,1.995c3.528,0 6.439,-1.245 8.723,-3.734c2.316,-2.489 3.472,-5.6 3.472,-9.333l0,-4.422Z" style="fill:#fff;fill-rule:nonzero;"/><path d="M1730.22,604.011c-1.706,0.956 -3.934,1.433 -6.684,1.433c-7.755,0 -11.633,-4.366 -11.633,-13.105l0,-26.306l-7.639,0l0,-6.033l7.639,0l0,-10.85l7.122,-2.3l0,13.15l11.195,0l0,6.033l-11.195,0l0,25.089c0,2.978 0.506,5.106 1.517,6.378c1.011,1.244 2.705,1.867 5.078,1.867c1.766,0 3.3,-0.478 4.6,-1.428l0,6.072Z" style="fill:#fff;fill-rule:nonzero;"/><path d="M1771.11,604.444l-7.116,0l0,-6.944l-0.173,0c-3.094,5.356 -7.655,8.033 -13.672,8.033c-4.283,0 -7.711,-1.155 -10.289,-3.472c-2.572,-2.344 -3.861,-5.483 -3.861,-9.422c0,-8.272 4.889,-13.106 14.672,-14.495l13.323,-1.866c0,-7.522 -3.051,-11.284 -9.156,-11.284c-5.356,0 -10.189,1.806 -14.5,5.423l0,-7.289c1.305,-0.984 3.533,-1.922 6.689,-2.822c3.15,-0.928 5.955,-1.389 8.417,-1.389c10.444,0 15.666,5.544 15.666,16.622l0,28.905Zm-7.116,-22.477l-10.762,1.516c-3.677,0.523 -6.25,1.406 -7.727,2.65c-1.478,1.211 -2.212,3.195 -2.212,5.945c0,2.228 0.795,4.022 2.384,5.383c1.594,1.328 3.633,1.995 6.122,1.995c3.528,0 6.439,-1.245 8.722,-3.734c2.317,-2.489 3.473,-5.6 3.473,-9.333l0,-4.422Z" style="fill:#fff;fill-rule:nonzero;"/><path d="M1814.39,602.406c-3.444,2.083 -7.511,3.127 -12.194,3.127c-4.05,0 -7.7,-0.927 -10.939,-2.777c-3.211,-1.884 -5.716,-4.528 -7.511,-7.945c-1.794,-3.411 -2.689,-7.25 -2.689,-11.5c0,-7.35 2.1,-13.255 6.295,-17.711c4.222,-4.456 9.838,-6.683 16.838,-6.683c3.878,0 7.306,0.755 10.289,2.255l0,7.295c-3.327,-2.317 -6.861,-3.473 -10.594,-3.473c-4.6,0 -8.345,1.65 -11.239,4.95c-2.867,3.267 -4.294,7.506 -4.294,12.717c0,5.178 1.355,9.272 4.077,12.283c2.75,3.006 6.423,4.512 11.023,4.512c3.877,0 7.522,-1.273 10.938,-3.817l0,6.767Z" style="fill:#fff;fill-rule:nonzero;"/><path d="M1860.53,584.006l-31.383,0c0.117,5.005 1.433,8.838 3.95,11.5c2.544,2.633 6.061,3.95 10.544,3.95c5.039,0 9.623,-1.623 13.762,-4.862l0,6.639c-3.878,2.867 -9.028,4.3 -15.45,4.3c-6.339,0 -11.284,-2.039 -14.845,-6.122c-3.561,-4.105 -5.339,-9.778 -5.339,-17.011c0,-4.4 0.884,-8.406 2.65,-12.022c1.789,-3.65 4.25,-6.467 7.378,-8.467c3.122,-1.994 6.595,-2.994 10.417,-2.994c5.755,0 10.238,1.883 13.455,5.644c3.239,3.733 4.861,8.967 4.861,15.711l0,3.734Zm-7.294,-6.034c-0.056,-4.111 -1.056,-7.294 -2.995,-9.55c-1.911,-2.283 -4.616,-3.428 -8.116,-3.428c-3.3,0 -6.123,1.189 -8.461,3.562c-2.345,2.372 -3.823,5.511 -4.428,9.416l24,0Z" style="fill:#fff;fill-rule:nonzero;"/><path d="M1907.83,604.444l-7.117,0l0,-25.344c0,-9.406 -3.444,-14.106 -10.333,-14.106c-3.5,0 -6.434,1.328 -8.811,3.995c-2.339,2.633 -3.512,6 -3.512,10.111l0,25.344l-7.122,0l0,-44.444l7.122,0l0,7.383l0.173,0c3.328,-5.644 8.189,-8.466 14.583,-8.466c4.889,0 8.606,1.594 11.156,4.777c2.572,3.184 3.861,7.695 3.861,13.539l0,27.211Z" style="fill:#fff;fill-rule:nonzero;"/><path d="M1941.77,604.011c-1.705,0.956 -3.933,1.433 -6.683,1.433c-7.756,0 -11.634,-4.366 -11.634,-13.105l0,-26.306l-7.638,0l0,-6.033l7.638,0l0,-10.85l7.123,-2.3l0,13.15l11.194,0l0,6.033l-11.194,0l0,25.089c0,2.978 0.505,5.106 1.516,6.378c1.012,1.244 2.706,1.867 5.078,1.867c1.767,0 3.3,-0.478 4.6,-1.428l0,6.072Z" style="fill:#fff;fill-rule:nonzero;"/><path d="M1986.58,584.006l-31.384,0c0.117,5.005 1.434,8.838 3.95,11.5c2.545,2.633 6.062,3.95 10.545,3.95c5.039,0 9.622,-1.623 13.761,-4.862l0,6.639c-3.878,2.867 -9.028,4.3 -15.45,4.3c-6.339,0 -11.283,-2.039 -14.844,-6.122c-3.562,-4.105 -5.339,-9.778 -5.339,-17.011c0,-4.4 0.883,-8.406 2.65,-12.022c1.789,-3.65 4.25,-6.467 7.377,-8.467c3.123,-1.994 6.595,-2.994 10.417,-2.994c5.756,0 10.239,1.883 13.456,5.644c3.239,3.733 4.861,8.967 4.861,15.711l0,3.734Zm-7.295,-6.034c-0.055,-4.111 -1.055,-7.294 -2.994,-9.55c-1.911,-2.283 -4.617,-3.428 -8.117,-3.428c-3.3,0 -6.122,1.189 -8.461,3.562c-2.344,2.372 -3.822,5.511 -4.428,9.416l24,0Z" style="fill:#fff;fill-rule:nonzero;"/><path d="M2020.16,567.206c-1.273,-0.956 -3.078,-1.428 -5.423,-1.428c-3.155,0 -5.716,1.489 -7.683,4.466c-1.967,2.95 -2.95,6.8 -2.95,11.545l0,22.655l-7.122,0l0,-44.444l7.122,0l0,9.161l0.172,0c0.984,-3.067 2.5,-5.483 4.556,-7.25c2.055,-1.794 4.411,-2.689 7.078,-2.689c1.85,0 3.266,0.2 4.25,0.606l0,7.378Z" style="fill:#fff;fill-rule:nonzero;"/><path d="M1443.57,727.972c-6.25,3.556 -13.194,5.339 -20.833,5.339c-5.817,0 -11.011,-1.317 -15.578,-3.95c-4.544,-2.633 -8.044,-6.35 -10.505,-11.155c-2.462,-4.8 -3.689,-10.228 -3.689,-16.278c0,-9.545 3.022,-17.434 9.072,-23.65c6.044,-6.222 13.783,-9.334 23.216,-9.334c6.773,0 12.462,1.1 17.062,3.3l0,8.073c-5.039,-3.211 -10.995,-4.817 -17.884,-4.817c-4.544,0 -8.639,1.1 -12.283,3.294c-3.617,2.173 -6.45,5.256 -8.506,9.245c-2.027,3.994 -3.038,8.439 -3.038,13.328c0,7.839 2.055,14.033 6.161,18.577c4.139,4.512 9.766,6.767 16.883,6.767c4.833,0 9.044,-0.983 12.633,-2.95l0,-17.405l-13.627,0l0,-6.595l20.916,0l0,28.211Z" style="fill:#fff;fill-rule:nonzero;"/><path d="M1497.43,709.828c0,7.061 -2.011,12.744 -6.033,17.061c-3.994,4.278 -9.361,6.422 -16.1,6.422c-6.572,0 -11.822,-2.083 -15.756,-6.25c-3.905,-4.194 -5.861,-9.711 -5.861,-16.539c0,-7.35 2.011,-13.15 6.034,-17.405c4.022,-4.278 9.561,-6.423 16.622,-6.423c6.6,0 11.761,2.073 15.494,6.206c3.734,4.111 5.6,9.756 5.6,16.928Zm-7.288,0.261c0,-5.583 -1.245,-9.867 -3.734,-12.845c-2.461,-2.983 -5.989,-4.472 -10.594,-4.472c-4.573,0 -8.189,1.534 -10.85,4.6c-2.661,3.039 -3.989,7.334 -3.989,12.889c0,5.328 1.328,9.495 3.989,12.5c2.694,2.983 6.311,4.472 10.85,4.472c4.633,0 8.177,-1.477 10.633,-4.427c2.461,-2.95 3.695,-7.189 3.695,-12.717Z" style="fill:#fff;fill-rule:nonzero;"/><path d="M1515.57,732.222l-7.123,0l0,-65.794l7.123,0l0,65.8" style="fill:#fff;fill-rule:nonzero;"/><path d="M1567.54,732.222l-7.116,0l0,-7.55l-0.172,0c-3.3,5.761 -8.395,8.639 -15.278,8.639c-5.617,0 -10.089,-2.011 -13.417,-6.033c-3.328,-4.05 -4.989,-9.45 -4.989,-16.189c0,-7.35 1.839,-13.256 5.511,-17.711c3.706,-4.456 8.65,-6.684 14.845,-6.684c6.077,0 10.516,2.406 13.328,7.206l0.172,0l0,-27.472l7.116,0l0,65.8m-7.116,-20.1l0,-6.55c0,-3.678 -1.234,-6.728 -3.689,-9.161c-2.433,-2.428 -5.4,-3.645 -8.9,-3.645c-4.283,0 -7.683,1.589 -10.2,4.772c-2.517,3.156 -3.772,7.539 -3.772,13.15c0,5.095 1.183,9.134 3.555,12.112c2.372,2.95 5.573,4.427 9.595,4.427c3.905,0 7.116,-1.416 9.633,-4.255c2.517,-2.834 3.778,-6.45 3.778,-10.85Z" style="fill:#fff;fill-rule:nonzero;"/><path d="M1645.76,729.667c-4.567,2.427 -10.283,3.644 -17.139,3.644c-5.761,0 -10.866,-1.289 -15.322,-3.861c-4.455,-2.578 -7.9,-6.222 -10.333,-10.939c-2.4,-4.744 -3.6,-10.155 -3.6,-16.233c0,-6.339 1.344,-12.05 4.033,-17.145c2.694,-5.122 6.472,-9.1 11.333,-11.933c4.861,-2.839 10.311,-4.256 16.361,-4.256c5.873,0 10.762,0.856 14.667,2.562l0,7.722c-4.455,-2.484 -9.372,-3.728 -14.755,-3.728c-4.689,0 -8.856,1.083 -12.5,3.256c-3.645,2.166 -6.478,5.261 -8.506,9.283c-1.994,4.022 -2.995,8.622 -2.995,13.805c0,4.917 0.939,9.273 2.823,13.062c1.878,3.794 4.539,6.716 7.983,8.766c3.444,2.028 7.378,3.039 11.806,3.039c6.25,0 11.633,-1.389 16.144,-4.167l0,7.123Z" style="fill:#fff;fill-rule:nonzero;"/><path d="M1664.63,732.222l-7.122,0l0,-65.794l7.122,0l0,65.8" style="fill:#fff;fill-rule:nonzero;"/><path d="M1719.39,709.828c0,7.061 -2.011,12.744 -6.033,17.061c-3.995,4.278 -9.362,6.422 -16.1,6.422c-6.573,0 -11.823,-2.083 -15.756,-6.25c-3.905,-4.194 -5.861,-9.711 -5.861,-16.539c0,-7.35 2.011,-13.15 6.033,-17.405c4.022,-4.278 9.561,-6.423 16.622,-6.423c6.601,0 11.762,2.073 15.495,6.206c3.733,4.111 5.6,9.756 5.6,16.928Zm-7.289,0.261c0,-5.583 -1.244,-9.867 -3.733,-12.845c-2.462,-2.983 -5.989,-4.472 -10.595,-4.472c-4.572,0 -8.189,1.534 -10.85,4.6c-2.661,3.039 -3.989,7.334 -3.989,12.889c0,5.328 1.328,9.495 3.989,12.5c2.695,2.983 6.311,4.472 10.85,4.472c4.634,0 8.178,-1.477 10.634,-4.427c2.461,-2.95 3.694,-7.189 3.694,-12.717Z" style="fill:#fff;fill-rule:nonzero;"/><path d="M1766.3,732.222l-7.117,0l0,-7.028l-0.172,0c-2.95,5.412 -7.511,8.117 -13.673,8.117c-10.622,0 -15.927,-6.322 -15.927,-18.967l0,-26.566l7.116,0l0,25.439c0,9.344 3.589,14.016 10.761,14.016c3.534,0 6.395,-1.272 8.595,-3.816c2.2,-2.578 3.3,-5.923 3.3,-10.028l0,-25.611l7.117,0l0,44.444Z" style="fill:#fff;fill-rule:nonzero;"/><path d="M1818.21,732.222l-7.117,0l0,-7.55l-0.172,0c-3.3,5.761 -8.394,8.639 -15.278,8.639c-5.616,0 -10.088,-2.011 -13.416,-6.033c-3.328,-4.05 -4.989,-9.45 -4.989,-16.189c0,-7.35 1.839,-13.256 5.511,-17.711c3.706,-4.456 8.65,-6.684 14.844,-6.684c6.078,0 10.517,2.406 13.328,7.206l0.172,0l0,-27.472l7.117,0l0,65.8m-7.117,-20.1l0,-6.55c0,-3.678 -1.233,-6.728 -3.688,-9.161c-2.434,-2.428 -5.4,-3.645 -8.901,-3.645c-4.283,0 -7.683,1.589 -10.2,4.772c-2.516,3.156 -3.772,7.539 -3.772,13.15c0,5.095 1.184,9.134 3.556,12.112c2.372,2.95 5.572,4.427 9.594,4.427c3.906,0 7.117,-1.416 9.634,-4.255c2.516,-2.834 3.777,-6.45 3.777,-10.85Z" style="fill:#fff;fill-rule:nonzero;"/><path d="M1892.18,688.561c0,6.017 -2.083,10.878 -6.25,14.583c-4.139,3.678 -9.578,5.512 -16.322,5.512l-8.2,0l0,23.566l-7.295,0l0,-62.239l17.1,0c6.656,0 11.806,1.639 15.456,4.906c3.672,3.239 5.511,7.8 5.511,13.672Zm-7.639,0.389c0,-8.244 -4.861,-12.367 -14.583,-12.367l-8.55,0l0,25.523l7.638,0c5.006,0 8.839,-1.134 11.5,-3.389c2.661,-2.284 3.995,-5.539 3.995,-9.767Z" style="fill:#fff;fill-rule:nonzero;"/><path d="M1926.11,694.983c-1.272,-0.955 -3.078,-1.427 -5.422,-1.427c-3.156,0 -5.717,1.488 -7.683,4.466c-1.967,2.956 -2.95,6.8 -2.95,11.545l0,22.655l-7.123,0l0,-44.444l7.123,0l0,9.161l0.172,0c0.983,-3.067 2.5,-5.483 4.555,-7.25c2.056,-1.795 4.411,-2.689 7.078,-2.689c1.85,0 3.267,0.2 4.25,0.606l0,7.377Z" style="fill:#fff;fill-rule:nonzero;"/><path d="M1974.23,709.828c0,7.061 -2.011,12.744 -6.033,17.061c-3.994,4.278 -9.361,6.422 -16.1,6.422c-6.572,0 -11.822,-2.083 -15.756,-6.25c-3.905,-4.194 -5.861,-9.711 -5.861,-16.539c0,-7.35 2.011,-13.15 6.034,-17.405c4.022,-4.278 9.561,-6.423 16.622,-6.423c6.6,0 11.761,2.073 15.494,6.206c3.734,4.111 5.6,9.756 5.6,16.928Zm-7.289,0.261c0,-5.583 -1.244,-9.867 -3.733,-12.845c-2.461,-2.983 -5.989,-4.472 -10.594,-4.472c-4.572,0 -8.189,1.534 -10.85,4.6c-2.661,3.039 -3.989,7.334 -3.989,12.889c0,5.328 1.328,9.495 3.989,12.5c2.694,2.983 6.311,4.472 10.85,4.472c4.633,0 8.177,-1.477 10.633,-4.427c2.461,-2.95 3.694,-7.189 3.694,-12.717Z" style="fill:#fff;fill-rule:nonzero;"/><path d="M2022.83,732.222l-7.116,0l0,-7.55l-0.178,0c-3.294,5.761 -8.389,8.639 -15.278,8.639c-5.611,0 -10.083,-2.011 -13.411,-6.033c-3.328,-4.05 -4.989,-9.45 -4.989,-16.189c0,-7.35 1.839,-13.256 5.511,-17.711c3.706,-4.456 8.65,-6.684 14.845,-6.684c6.078,0 10.516,2.406 13.322,7.206l0.178,0l0,-27.472l7.116,0l0,65.8m-7.116,-20.1l0,-6.55c0,-3.678 -1.234,-6.728 -3.689,-9.161c-2.434,-2.428 -5.4,-3.645 -8.9,-3.645c-4.284,0 -7.684,1.589 -10.2,4.772c-2.517,3.156 -3.778,7.539 -3.778,13.15c0,5.095 1.189,9.134 3.561,12.112c2.372,2.95 5.572,4.427 9.595,4.427c3.905,0 7.116,-1.416 9.633,-4.255c2.516,-2.834 3.778,-6.45 3.778,-10.85Z" style="fill:#fff;fill-rule:nonzero;"/><path d="M2073.05,732.222l-7.117,0l0,-7.028l-0.172,0c-2.95,5.412 -7.511,8.117 -13.672,8.117c-10.622,0 -15.928,-6.322 -15.928,-18.967l0,-26.566l7.117,0l0,25.439c0,9.344 3.589,14.016 10.761,14.016c3.533,0 6.394,-1.272 8.594,-3.816c2.2,-2.578 3.3,-5.923 3.3,-10.028l0,-25.611l7.117,0l0,44.444Z" style="fill:#fff;fill-rule:nonzero;"/><path d="M2117.33,730.183c-3.445,2.084 -7.511,3.128 -12.195,3.128c-4.055,0 -7.7,-0.928 -10.939,-2.778c-3.211,-1.883 -5.716,-4.527 -7.511,-7.944c-1.794,-3.411 -2.689,-7.25 -2.689,-11.5c0,-7.35 2.1,-13.256 6.295,-17.711c4.222,-4.456 9.839,-6.684 16.839,-6.684c3.877,0 7.305,0.756 10.289,2.256l0,7.294c-3.328,-2.316 -6.861,-3.472 -10.595,-3.472c-4.6,0 -8.344,1.65 -11.239,4.95c-2.866,3.267 -4.3,7.506 -4.3,12.717c0,5.178 1.361,9.272 4.084,12.283c2.75,3.006 6.422,4.511 11.022,4.511c3.878,0 7.522,-1.272 10.939,-3.816l0,6.766Z" style="fill:#fff;fill-rule:nonzero;"/><path d="M2148.71,731.789c-1.706,0.955 -3.934,1.433 -6.684,1.433c-7.755,0 -11.633,-4.366 -11.633,-13.105l0,-26.306l-7.639,0l0,-6.033l7.639,0l0,-10.85l7.122,-2.3l0,13.15l11.195,0l0,6.033l-11.195,0l0,25.089c0,2.978 0.506,5.106 1.517,6.378c1.011,1.244 2.705,1.866 5.078,1.866c1.766,0 3.299,-0.477 4.6,-1.427l0,6.072Z" style="fill:#fff;fill-rule:nonzero;"/><path d="M2166.47,671.85c0,1.333 -0.461,2.444 -1.389,3.344c-0.922,0.867 -2.022,1.3 -3.295,1.3c-1.305,0 -2.405,-0.416 -3.3,-1.255c-0.9,-0.872 -1.344,-2 -1.344,-3.389c0,-1.244 0.433,-2.311 1.3,-3.211c0.9,-0.928 2.011,-1.389 3.344,-1.389c1.328,0 2.445,0.45 3.339,1.344c0.9,0.9 1.345,1.984 1.345,3.256Zm-1.211,60.372l-7.123,0l0,-44.444l7.123,0l0,44.444Z" style="fill:#fff;fill-rule:nonzero;"/><path d="M2214.58,687.778l-17.705,44.444l-7.034,0l-16.794,-44.444l7.855,0l11.284,32.25c0.611,1.711 1.1,3.794 1.478,6.25l0.216,0c0.262,-2.139 0.723,-4.15 1.389,-6.034l11.85,-32.466l7.461,0Z" style="fill:#fff;fill-rule:nonzero;"/><path d="M2230.56,671.85c0,1.333 -0.462,2.444 -1.389,3.344c-0.922,0.867 -2.023,1.3 -3.295,1.3c-1.305,0 -2.405,-0.416 -3.3,-1.255c-0.9,-0.872 -1.344,-2 -1.344,-3.389c0,-1.244 0.433,-2.311 1.3,-3.211c0.894,-0.928 2.011,-1.389 3.344,-1.389c1.328,0 2.445,0.45 3.339,1.344c0.9,0.9 1.345,1.984 1.345,3.256Zm-1.211,60.372l-7.123,0l0,-44.444l7.123,0l0,44.444Z" style="fill:#fff;fill-rule:nonzero;"/><path d="M2264.35,731.789c-1.706,0.955 -3.933,1.433 -6.683,1.433c-7.756,0 -11.634,-4.366 -11.634,-13.105l0,-26.306l-7.638,0l0,-6.033l7.638,0l0,-10.85l7.123,-2.3l0,13.15l11.194,0l0,6.033l-11.194,0l0,25.089c0,2.978 0.505,5.106 1.516,6.378c1.011,1.244 2.706,1.866 5.078,1.866c1.767,0 3.3,-0.477 4.6,-1.427l0,6.072Z" style="fill:#fff;fill-rule:nonzero;"/><path d="M2309.16,687.778l-20.445,51.566c-3.644,9.173 -8.766,13.756 -15.367,13.756c-1.85,0 -3.4,-0.172 -4.644,-0.517l0,-6.383c1.506,0.522 2.894,0.783 4.167,0.783c3.616,0 6.322,-2.127 8.116,-6.383l3.561,-8.461l-17.361,-44.356l7.945,0l11.977,34.2l0.912,3.384l0.261,0c0.117,-0.634 0.405,-1.723 0.866,-3.256l12.628,-34.328l7.384,0" style="fill:#fff;fill-rule:nonzero;"/></g></svg>