<svg width="968" height="149" fill="none" xmlns="http://www.w3.org/2000/svg"><g filter="url(#filter0_dd)"><path d="M100.624 93.186c2.566.45 4.088 1.108 4.566 1.975.478.867.352 1.87-.377 3.006-.734 1.027-1.798 2.122-3.191 3.286-1.393 1.164-2.737 2.16-4.033 2.987-1.225-.172-2.543.103-3.954.825a25.005 25.005 0 00-3.735 2.144 29.408 29.408 0 00-4.492-.15l-4.479.181a66.164 66.164 0 01-2.393 6.576c-.804 2.026-1.951 3.79-3.441 5.29-.088.557.042 1.05.392 1.479.46.425.812.909 1.055 1.453-1.176 1.044-2.018 2.131-2.526 3.259a18.06 18.06 0 00-.855 3.524 387.15 387.15 0 01-.191 3.496 7.682 7.682 0 01-.536 3.179 10.786 10.786 0 00-2.587 1.766l-2.242 2.084a13.031 13.031 0 01-2.249 1.919c-.867.478-1.96.854-3.277 1.129-2.354-.68-4.263-1.323-5.727-1.928a103.286 103.286 0 00-5.077-2.288c-1.629-1.928-2.598-3.993-2.909-6.196-.2-2.207-.013-4.43.562-6.669a31.713 31.713 0 012.399-6.41 96.937 96.937 0 012.937-5.436 125.46 125.46 0 001.823-4.227 61.513 61.513 0 00-7.79.481c-2.538.213-5.183.541-7.935.985a34.713 34.713 0 01-2.267 5.574 18.848 18.848 0 01-3.137 4.613c-.088.557.098 1.048.558 1.473.46.424.812.909 1.056 1.453-1.176 1.044-2.019 2.13-2.527 3.259a18.05 18.05 0 00-.855 3.523c-.065 1.111-.13 2.276-.19 3.497-.066 1.11-.303 2.117-.71 3.019a10.813 10.813 0 00-2.586 1.766 38.132 38.132 0 01-2.076 2.078 20.496 20.496 0 01-2.415 1.925c-.867.478-1.96.855-3.277 1.13-2.354-.681-4.263-1.324-5.727-1.929-1.359-.721-3.051-1.483-5.077-2.287-1.624-1.818-2.536-3.83-2.736-6.037a20.18 20.18 0 01.554-6.835 31.743 31.743 0 012.4-6.411 96.822 96.822 0 012.937-5.435 54.697 54.697 0 00-4.14.333 48.213 48.213 0 00-3.975.327c-1.694-.818-2.955-1.874-3.783-3.17a14.82 14.82 0 01-1.826-4.08 32.825 32.825 0 01-.52-4.631c.048-1.553.041-3.104-.021-4.652.393-1.234 1.074-2.203 2.042-2.907a34.59 34.59 0 013.41-1.965c3.313-.245 6.294-.476 8.944-.694 2.645-.328 5.235-.654 7.77-.978.101-.226.145-.505.132-.836a6.43 6.43 0 01.298-.843c-.173-1.544.079-3.548.754-6.012.782-2.58 1.668-5.329 2.658-8.249-1.867.408-3.459.75-4.777 1.024a43.64 43.64 0 00-3.29.797c-2.66-.003-4.666-.31-6.02-.92-1.243-.614-2.214-1.35-2.913-2.208a8.74 8.74 0 01-1.455-3.098 27.878 27.878 0 00-1.149-3.775c.849-.92 1.353-2.16 1.511-3.717.27-1.561-.11-2.709-1.136-3.443 1.097-.266 2.068-.914 2.913-1.945.84-1.142 1.138-1.984.894-2.529a66.641 66.641 0 0110.583-1.258c3.645-.258 7.12-.62 10.424-1.085 1.127-2.261 2.061-5.179 2.803-8.753.848-3.69 1.753-7.327 2.716-10.91 1.07-3.698 2.377-6.963 3.925-9.795 1.657-2.836 3.802-4.584 6.434-5.245 3.442 2.963 6.065 6.18 7.866 9.652 1.908 3.357 3.511 7.39 4.81 12.1-.288 1.12-.73 2.522-1.326 4.208l-2.088 5.9c2.65-.218 5.301-.38 7.955-.488 2.655-.107 5.251-.267 7.79-.48.897-2.474 1.719-5.442 2.465-8.906a130.815 130.815 0 012.584-10.074c1.082-3.366 2.404-6.3 3.964-8.8 1.56-2.5 3.602-4.077 6.123-4.733 3.328 2.856 5.948 6.018 7.86 9.485 1.912 3.468 3.462 7.559 4.649 12.274-.287 1.12-.78 2.634-1.478 4.546a1273.24 1273.24 0 01-2.074 6.231c1.774.04 3.497.191 5.169.456 1.668.154 3.176.48 4.526.98 1.345.389 2.422 1.01 3.232 1.863.805.743 1.29 1.776 1.454 3.099 2 .14 3.342.474 4.028 1 .797.522 1.211 1.17 1.242 1.944.142.77.012 1.66-.391 2.674a27.793 27.793 0 00-1.054 2.7c-3.042 1.453-6.76 2.655-11.152 3.608-4.286.838-8.91 1.523-13.874 2.056a313.763 313.763 0 00-2.763 9.748c-.773 2.8-1.186 4.922-1.238 6.364l7.298-.295c-.07 1 .346 1.703 1.249 2.11.902.406 1.858.755 2.867 1.047 1.004.18 1.902.477 2.694.888.787.3 1.035.955.744 1.964zm-55.12-3.09c2.202-.311 4.794-.582 7.775-.813 2.982-.231 6.074-.467 9.276-.707.15-1.778.611-4.068 1.384-6.868a224.43 224.43 0 012.97-8.76l-9.456.382c-2.875.116-5.527.279-7.955.487a316.756 316.756 0 00-2.777 9.417c-.667 2.685-1.029 4.694-1.086 6.025l-.132.836zm150.608 1.891c-.088.558-.178 1.06-.271 1.507l-.292 1.008c-.097.337-.134.781-.112 1.334l.074 1.825c-3.081 5.995-7.085 11.086-12.011 15.272-4.816 4.182-10.202 7.945-16.159 11.287a223.17 223.17 0 01-18.41 9.051 265.479 265.479 0 00-18.754 8.733c-2.681-.557-4.772-1.58-6.272-3.07-1.389-1.495-2.511-3.222-3.366-5.181-.748-2.074-1.338-4.321-1.768-6.741-.323-2.534-.65-5.124-.978-7.769.283-1.23.685-2.243 1.206-3.04.628-.911.911-2.141.848-3.689.769-2.911 1.54-5.767 2.313-8.567a37.008 37.008 0 001.317-8.527c.296-.898.879-1.531 1.751-1.899a78.331 78.331 0 00-.65-16.09c-.666-5.512-1.758-10.618-3.277-15.32.066-1.11.145-1.889.238-2.336.198-.561.183-.948-.047-1.16-.147-.881.112-1.334.776-1.361l2.322-.094c-.067-1.659-.466-3.304-1.196-4.936a92.212 92.212 0 01-1.887-5.573c.707-1.69 1.14-3.314 1.299-4.871.154-1.668.593-3.126 1.318-4.373 6.048 1.639 11.835 3.676 17.361 6.11 5.636 2.431 11.133 4.148 16.49 5.15a593.215 593.215 0 0012.624 8.13c4.314 2.595 8.254 5.537 11.821 8.827 3.562 3.18 6.592 6.878 9.088 11.097 2.497 4.22 4.031 9.308 4.604 15.266zM157.167 102.7c2.287-.979 4.516-2.01 6.687-3.095 2.282-1.09 4.339-2.28 6.17-3.572a29.95 29.95 0 005.127-4.693c1.481-1.722 2.673-3.764 3.574-6.126a11.676 11.676 0 00-2.795-3.376 40.28 40.28 0 00-3.438-2.852l-3.438-2.852c-1.036-.955-1.914-2.138-2.636-3.549-1.446-.163-2.734-.499-3.862-1.007a49.524 49.524 0 00-3.391-1.69 23.558 23.558 0 00-3.391-1.691c-1.129-.509-2.469-.787-4.022-.835-2.482-1.118-4.729-1.913-6.742-2.386-1.903-.477-3.369-1.138-4.4-1.982-.774.031-1.376.221-1.805.571 1.276 4.158 2.266 8.105 2.971 11.843.7 3.627 1.126 7.32 1.278 11.08.258 3.645.244 7.412-.042 11.3-.286 3.889-.724 8.116-1.315 12.681 1.101-.155 2.087-.417 2.959-.784a69.865 69.865 0 002.766-1.441c.977-.483 1.957-.91 2.939-1.282 1.088-.487 2.349-.815 3.782-.983a4.906 4.906 0 011.26-1.713 11.947 11.947 0 001.764-1.566zm138.107-19.701a10.97 10.97 0 00.485 3.801 46.691 46.691 0 001.309 3.603 33.044 33.044 0 011.634 3.423 22.418 22.418 0 011.142 3.61c.284 1.538.353 3.253.208 5.142a30.437 30.437 0 01-.947 5.355 22.246 22.246 0 01-1.969 4.731c-.831 1.363-1.841 2.401-3.031 3.113a16.309 16.309 0 01-5.452 4.873 32.488 32.488 0 00-5.977 4.229c-1.185.823-2.545 1.432-4.08 1.826-1.424.39-2.904.782-4.438 1.176a78.084 78.084 0 01-4.226 2.331 250.363 250.363 0 01-5.062 2.198 46.42 46.42 0 01-5.255 1.542c-1.76.292-3.306.41-4.638.353-3.268 1.351-6.499 2.257-9.693 2.718-3.078.567-6.737.494-10.975-.221-3.958.713-7.67.697-11.134-.049-3.353-.751-6.395-2.013-9.125-3.785a36.968 36.968 0 01-7.082-6.693 46.531 46.531 0 01-4.993-8.438c-1.14-6.267-1.148-11.972-.027-17.112 1.117-5.251 2.805-10.083 5.064-14.494 2.365-4.526 5.077-8.678 8.137-12.457a2716.74 2716.74 0 008.847-11.324c.672.195 1.17.175 1.493-.06.429-.35.8-.752 1.114-1.208.309-.566.621-1.078.935-1.533.424-.46.911-.757 1.459-.89.707-1.69 1.764-2.951 3.17-3.783a9.64 9.64 0 003.502-3.797c.987-.261 1.803-.627 2.448-1.096.646-.469 1.234-.991 1.765-1.566a23.26 23.26 0 011.93-1.574 5.76 5.76 0 012.275-1.255l-.073-1.824c1.955-.965 3.352-2.019 4.192-3.16a517.128 517.128 0 003.309-4.454c.991-.15 1.763-.237 2.316-.26.663-.027 1.599-.175 2.807-.445.822-1.584 1.549-2.777 2.181-3.578.743-.805 1.815-1.68 3.217-2.622 1.354.61 2.81.994 4.367 1.153 1.667.154 3.134.815 4.4 1.982.155 1.102.522 1.973 1.102 2.614a27.17 27.17 0 001.892 1.585c.681.416 1.31.889 1.885 1.42.686.526 1.159 1.282 1.421 2.268.447.093.721.026.822-.2.213-.23.542-.298.989-.205.394 1.534.824 2.57 1.288 3.105.461.424.941 1.346 1.441 2.766a18.93 18.93 0 00-1.186 3.537c-.176 1.115-.806 1.97-1.89 2.569-.079.778.16 1.212.717 1.3.553-.023.896.24 1.029.789.151.99.014 1.716-.411 2.176a107.57 107.57 0 017.689 13.48 113.36 113.36 0 007.683 13.315zm-20.099 16.596c.393-1.235.906-2.252 1.538-3.053.743-.805 1.139-1.985 1.187-3.537-.589-.863-.948-1.513-1.076-1.95-.133-.55-.222-1.376-.266-2.482a67.032 67.032 0 01-6.746-10.694c-1.93-3.91-4.07-7.534-6.421-10.872-.203.45-.572.909-1.107 1.374-.535.464-1.148.378-1.838-.258-.186.893-.546 1.572-1.081 2.037a3.484 3.484 0 01-1.805.571 19.682 19.682 0 01-2.176-.41 10.26 10.26 0 01-1.872-1.088 568.045 568.045 0 01-9.319 7.853 48.057 48.057 0 00-8.284 8.809c-.434.239-.706.36-.816.365-.116-.106-.445-.037-.989.206a27.321 27.321 0 01-3.083 5.94 205.78 205.78 0 00-3.442 5.29 35.173 35.173 0 00-2.924 5.767c-.804 2.026-1.208 4.369-1.211 7.027 1.942 1.472 4.192 2.323 6.749 2.552 2.557.229 5.158.18 7.803-.149a87.106 87.106 0 007.922-1.317c2.632-.66 5.054-1.035 7.265-1.124 4.6-1.293 8.523-2.892 11.769-4.795a299.1 299.1 0 0110.223-6.062zm121.016-64.37c.142.77.167 1.378.074 1.824.014.332-.028.666-.126 1.002l.047 1.162c.014.331.147.88.399 1.645-2.17 3.854-4.775 6.562-7.813 8.125-2.932 1.447-6.154 2.574-9.666 3.38a564.076 564.076 0 00-10.875 2.268c-3.622.81-7.214 2.396-10.774 4.755-1.46-.495-2.787-.442-3.981.16-1.083.598-2.736.831-4.956.7-.637.69-1.446 1.22-2.428 1.593a30.03 30.03 0 00-2.952.95c.482.977.69 2.02.625 3.131.04.996.239 1.818.598 2.468 3.884.176 8.139-.052 12.766-.681a204.407 204.407 0 0113.9-1.393c.133.549.093.938-.119 1.168-.217.12-.261.398-.132.836.796.522 1.599 1.21 2.409 2.063l2.416 2.228a18.667 18.667 0 002.403 1.897c.903.407 1.905.532 3.006.377.478.867.795 1.851.95 2.953.261.986.193 2.041-.204 3.165a157.095 157.095 0 00-5.154 4.03 47.327 47.327 0 01-5.506 3.545c-1.84 1.071-3.853 1.983-6.037 2.736-2.079.638-4.448.955-7.107.951l-1.327.054c-.221.01-.559-.143-1.015-.457-.862.588-2.127.806-3.795.651-1.557-.158-2.767.057-3.629.645-1.239-.503-2.741-.664-4.506-.482-1.659.067-3.161-.094-4.506-.483a57.58 57.58 0 00-4.509 7.66 65.58 65.58 0 00-3.473 8.613c3.782.401 6.888.497 9.316.288 2.539-.213 4.91-.475 7.113-.785 2.198-.421 4.454-.789 6.767-1.104 2.309-.426 5.235-.655 8.779-.687 2.162-1.306 4.73-2.185 7.702-2.637 3.079-.568 5.872-1.345 8.38-2.333.898.296 1.696.873 2.396 1.731a33.213 33.213 0 011.918 2.249 30.368 30.368 0 002.064 1.744c.686.526 1.525.714 2.515.563.461.425.759.966.897 1.625.243.544.432 1.091.565 1.639.132.549.318 1.039.557 1.473.346.318.848.409 1.507.271-1.512 3.717-3.333 6.615-5.464 8.695-2.026 1.965-4.4 3.5-7.125 4.607-2.724 1.107-5.789 2.007-9.195 2.698-3.296.687-6.973 1.5-11.034 2.439-.986.262-1.818.24-2.495-.065-.672-.194-1.451-.274-2.336-.238-2.521.656-5.542 1.276-9.063 1.862a69.88 69.88 0 01-10.762.933c-3.654.036-7.157-.32-10.511-1.071-3.348-.64-6.116-1.968-8.302-3.985-.916-.738-1.56-1.598-1.932-2.58-.266-1.097-1.018-1.897-2.257-2.401-.168-1.433-.454-3.028-.858-4.784a533.746 533.746 0 01-1.216-5.434 122.3 122.3 0 01-1.064-5.772c-.186-1.876-.145-3.594.124-5.156a10.953 10.953 0 011.81-4.559c1.052-1.372 1.381-2.825.987-4.36.548-.133.869-.422.962-.87.088-.557.521-.796 1.3-.716a66.913 66.913 0 011.928-5.727 235.5 235.5 0 012.115-5.237 103.99 103.99 0 002.287-5.076 57.045 57.045 0 002.254-5.907c-1.606-1.375-2.83-2.876-3.671-4.504a33.295 33.295 0 01-1.701-5.082 88.628 88.628 0 01-1.044-5.274 34.173 34.173 0 00-1.388-5.593c1.038-1.704 2.312-3.085 3.82-4.142a23.853 23.853 0 015.201-2.869c1.853-.74 3.877-1.375 6.07-1.907a274.351 274.351 0 006.907-1.774c4.365-1.616 8.247-2.88 11.644-3.793a126.33 126.33 0 0110.21-2.24 273.569 273.569 0 0110.556-1.922c3.632-.59 7.752-1.42 12.361-2.493 1.036.955 1.996 1.415 2.88 1.379.403-1.013.889-1.31 1.46-.89.677.305.94-.038.789-1.029a17.41 17.41 0 004.341 4.643 32.487 32.487 0 005.933 2.918zm58.174-11.82c4.667.365 8.852 1.137 12.555 2.317 3.703 1.18 6.871 2.824 9.504 4.933a85.914 85.914 0 015.338 8.756 41.045 41.045 0 014.058 9.972c1.023 3.392 1.553 6.915 1.59 10.569.148 3.65-.477 7.385-1.873 11.208-3.046 4.11-6.841 7.531-11.382 10.262-4.436 2.616-9.277 4.806-14.523 6.569a181.998 181.998 0 01-16.427 4.65 2206.111 2206.111 0 00-16.454 3.988 99.51 99.51 0 01.328 8.128 44.734 44.734 0 01-.487 8.494 42.054 42.054 0 01-1.828 8.215 29.172 29.172 0 01-3.687 7.46c-1.88.075-3.806.375-5.779.898a92.595 92.595 0 01-5.254 1.541 36.464 36.464 0 01-2.21-1.24c-.567-.309-1.405-.497-2.515-.563.176-1.115-.145-2.209-.964-3.284l-2.469-3.556c-.824-1.185-1.424-2.324-1.8-3.416-.266-1.097.245-2.17 1.532-3.219-.806-.743-1.233-1.722-1.282-2.939.72-1.358 1.31-3.21 1.769-5.554.57-2.349.976-4.636 1.218-6.862.349-2.34.375-4.445.078-6.316-.298-1.872-1.459-3.21-3.486-4.014.102-.225.319-.345.651-.358.331-.013.661-.082.988-.206-.911-.628-1.502-1.546-1.773-2.753-.159-1.212-.589-2.247-1.288-3.105.199-.562.345-1.066.437-1.513.093-.447.473-.628 1.141-.544-.412-1.978-.488-3.858-.227-5.64.371-1.788.912-3.471 1.623-5.05a30.4 30.4 0 012.626-4.925 115.448 115.448 0 002.964-4.772c.77-.142 1.217-.049 1.341.278.234.323.619.252 1.154-.213 1.393-1.163 2.341-2.365 2.845-3.604.504-1.238.725-2.632.662-4.18a61.29 61.29 0 012.539-7.081c1.007-2.478 2.134-4.739 3.381-6.783 1.247-2.044 2.613-3.871 4.098-5.482 1.597-1.615 3.264-2.846 5.002-3.691 1.282-1.16 2.901-2.222 4.856-3.187 1.95-1.076 4.078-1.882 6.382-2.418a30.012 30.012 0 016.934-1.11c2.428-.21 4.649-.078 6.662.395.561.199.833.077.816-.365.092-.447.305-.677.636-.69zm-5.199 39.92a45.404 45.404 0 018.677-3.176c3.176-.903 5.774-2.393 7.795-4.468-1.376-1.163-3.354-2.136-5.933-2.917-2.584-.893-5.373-1.39-8.368-1.49-2.995-.1-6.025.299-9.09 1.198-2.959.784-5.504 2.216-7.635 4.296a196.868 196.868 0 01-1.465 4.877c-.397 1.124-.95 2.531-1.657 4.221.244.544.593.973 1.049 1.287.562.199.964.57 1.208 1.114 2.49-1.43 5.004-2.251 7.543-2.465 2.646-.328 5.271-1.154 7.876-2.478zm70.592 48.821c.687 3.295.571 5.903-.349 7.823-.809 1.916-2.08 3.352-3.813 4.308-1.619 1.062-3.532 1.693-5.739 1.893-2.207.2-4.313.175-6.317-.077-1.168-1.503-2.242-3.398-3.22-5.685a135.668 135.668 0 01-2.777-7.032 267.736 267.736 0 01-2.458-7.378 893.635 893.635 0 00-1.754-6.409c.499-1.35.771-2.856.814-4.519.15-1.778.189-3.552.118-5.321a84.83 84.83 0 00-.049-5.315 72.21 72.21 0 01.284-5.329c.586-4.675 1.513-9.144 2.781-13.404a84.782 84.782 0 003.12-13.252c.181-1.004.033-1.94-.445-2.806-.368-.872-.457-1.699-.267-2.482.093-.447.413-.737.962-.87.544-.243.86-.644.948-1.201.283-1.23.298-2.227.046-2.992-.142-.77.041-1.72.549-2.847.517-.907 1.13-2.206 1.837-3.896.813-1.805 1.071-3.643.774-5.514a18.54 18.54 0 002.726-2.436c.849-.92 1.702-1.73 2.56-2.43a18.87 18.87 0 013.072-2.118c1.194-.602 2.62-.936 4.279-1.003.929 1.07 1.531 2.264 1.806 3.582a50.35 50.35 0 01.99 3.948c.386 1.313.88 2.567 1.482 3.761.597 1.084 1.573 1.93 2.927 2.54l.134 3.318c.053 1.327.162 2.652.326 3.974.16 1.212.428 2.365.805 3.457.482.977 1.173 1.614 2.071 1.91a545.822 545.822 0 00-5.004 15.987 157.315 157.315 0 00-3.51 15.926 108.018 108.018 0 00-1.52 15.846c-.007 5.317.597 10.665 1.811 16.043zm88.731 8.379c-1.765.182-3.979.216-6.642.102-2.553-.118-4.915.365-7.086 1.449-5.87.016-11.871-.462-18.002-1.432-6.132-.971-11.777-2.239-16.935-3.802a47.02 47.02 0 00-3.452-3.184c-1.15-1.061-2.675-1.775-4.572-2.142a25.309 25.309 0 01-6.778-7.369 50.419 50.419 0 01-4.376-9.626 56.274 56.274 0 01-2.413-10.37c-.479-3.636-.731-7.115-.754-10.437 1.458-5.043 3.608-9.395 6.451-13.054a439.652 439.652 0 019.02-11.164c1.411-.722 2.434-1.428 3.071-2.118.743-.806 1.49-1.5 2.242-2.085.858-.699 1.663-1.34 2.415-1.925.857-.699 1.6-1.504 2.228-2.416 2.3-.647 4.259-1.501 5.878-2.563a207.339 207.339 0 005.008-3.526 50.843 50.843 0 015.009-3.525c1.729-1.067 3.743-1.924 6.043-2.57a9.357 9.357 0 013.058-2.45 56.29 56.29 0 013.576-1.972c1.3-.717 2.49-1.43 3.569-2.138 1.19-.713 2.094-1.635 2.713-2.768.588.863 1.376 1.163 2.362.902a80.758 80.758 0 002.78-1.11c.548-.133.995-.04 1.34.279.456.313.857.63 1.202.948.345.318.63.528.856.63.332-.013.597-.301.796-.863.553-.022.73.247.531.81-.199.561-.349.955-.451 1.18.88-.146 1.608.047 2.183.577.682.416 1.688.652 3.02.709.465.535.593.973.385 1.313-.212.23-.305.677-.278 1.341 3.358.861 5.524 2.38 6.498 4.556.969 2.065 1.114 4.275.434 6.628-.681 2.354-1.976 4.566-3.886 6.637-1.91 2.071-4.013 3.485-6.309 4.243-5.25 1.652-10.217 3.458-14.9 5.42-4.578 1.846-8.293 4.489-11.145 7.927-2.622.881-4.958 2.028-7.005 3.44a41.472 41.472 0 00-5.632 4.547 72.346 72.346 0 00-4.941 5.184 105.756 105.756 0 01-4.775 5.178c.173 1.543-.055 2.771-.682 3.682a48.214 48.214 0 00-1.559 2.556c.288 1.65.736 3.127 1.342 4.431a56.444 56.444 0 001.972 3.576c7.388 1.917 15.185 2.987 23.391 3.21 8.316.217 16.624.214 24.922-.01a23.587 23.587 0 002.782 3.044 19.086 19.086 0 013.106 2.865c.925.96 1.691 2.092 2.297 3.397.602 1.194.776 2.737.52 4.631a41.472 41.472 0 01-4.955 4.852 183.44 183.44 0 00-5.472 4.375zm16.213-75.755c.681-2.354 1.817-4.393 3.408-6.12 1.703-1.73 3.527-3.188 5.473-4.374a37.875 37.875 0 016.349-3.247c2.18-.864 4.254-1.612 6.223-2.245 4.347-2.059 8.976-4.018 13.885-5.878a190.257 190.257 0 0115.239-5.268 88.896 88.896 0 0116.156-3.145c5.512-.665 11.344-.236 17.498 1.287a11.73 11.73 0 001.62 3.092l2.111 2.905a23.386 23.386 0 012.112 2.906 6.668 6.668 0 011.109 2.78c1.146.95 2.075 2.02 2.788 3.21.708 1.079.879 2.567.512 4.465a64.546 64.546 0 01-3.217 2.623 23.439 23.439 0 01-3.244 1.958 39.271 39.271 0 00-12.481-.493 934.3 934.3 0 01-11.246 1.285c-1.036-.955-2.272-1.403-3.71-1.345-1.327.053-2.756.333-4.286.838-1.42.5-2.895 1.003-4.425 1.508-1.42.5-2.798.666-4.134.499-1.07.93-2.428 1.593-4.073 1.992-1.539.284-3.244.574-5.115.871-.089.558.038.94.378 1.148.336.097.405.427.206.989a5.51 5.51 0 002.555 1.558l3.358.861c1.23.283 2.299.683 3.206 1.2.902.407 1.542 1.156 1.918 2.249 1.659-.067 3.112.261 4.36.986 1.248.726 2.281 1.625 3.1 2.7a10.966 10.966 0 011.806 3.582c.491 1.199.757 2.296.797 3.291.368.871.771 1.243 1.208 1.114.438-.128.945.073 1.52.603.39 1.425 1.28 2.884 2.669 4.379a17.235 17.235 0 013.346 4.683c.333 2.756.6 5.237.799 7.445.196 2.096-.104 4.268-.899 6.516a35.546 35.546 0 01-6.525 11.23c-2.746 3.322-5.947 6.332-9.605 9.027a70.56 70.56 0 01-11.522 6.779c-4.131 1.939-8.163 3.598-12.095 4.975a2.7 2.7 0 00-1.327.053c-.438.129-.559-.143-.365-.816a6.375 6.375 0 01-2.926 1.614c-.986.261-2.09.361-3.31.3a46.09 46.09 0 01-3.822-.012 12.122 12.122 0 00-3.477.307 40.66 40.66 0 01-2.25-2.236c-.58-.641-1.058-1.508-1.435-2.6-.553.022-.84-.243-.863-.796.089-.557-.088-.827-.531-.809.619-1.133.871-1.752.756-1.858-.009-.222-.182-.381-.518-.478l-.677-.305c-.23-.212-.296-.486-.199-.823.407-.902.532-1.904.377-3.006l-.479-3.636a12.082 12.082 0 01.025-3.49c.287-1.119 1.081-2.037 2.381-2.754 3.778.29 7.312.037 10.603-.76 3.397-.913 6.561-2.094 9.494-3.541 2.932-1.448 5.694-3 8.285-4.655a113.231 113.231 0 017.961-4.475c.292-1.009.7-1.856 1.227-2.542a29.722 29.722 0 011.916-1.905 14.172 14.172 0 001.751-1.898c.527-.686.88-1.531 1.061-2.535.079-.78-.16-1.212-.717-1.3-.451-.204-.69-.638-.717-1.301l-1.845-.424c-2.15-1.132-4.568-2.03-7.253-2.698-2.69-.777-4.995-1.626-6.915-2.545-1.19.713-2.345.925-3.464.638-1.009-.291-2.349-.57-4.021-.834-3.769-.07-7.434-.31-10.995-.72a39.708 39.708 0 01-10.074-2.583 6.498 6.498 0 00-.889-1.46c-.35-.428-.963-.514-1.838-.257-.7-.858-1.397-1.66-2.091-2.408a24.523 24.523 0 01-1.939-2.746c.168-1.336.289-2.449.364-3.338.07-1-.3-1.926-1.11-2.78.385-1.455.67-2.63.855-3.524.185-.893.139-2.054-.141-3.483zm163.435 52.05c.338 2.866.102 5.257-.707 7.173a14.258 14.258 0 01-3.455 4.958c-1.495 1.389-3.222 2.511-5.181 3.366a197.985 197.985 0 01-5.719 2.391 3765.5 3765.5 0 01-2.721-1.552c-.801-.632-1.761-1.092-2.88-1.379-1.545-2.596-3.021-4.862-4.428-6.799-1.412-2.048-2.116-4.401-2.113-7.06-.005-.11.026-.72.092-1.83.177-1.115.349-2.34.516-3.677.278-1.34.45-2.566.516-3.676.172-1.225.256-1.893.252-2.004-2.535.324-5.167.984-7.896 1.98a72.654 72.654 0 00-8 3.48 223.615 223.615 0 00-7.152 3.945c-2.162 1.305-3.945 2.43-5.347 3.372.014.332-.174 1.171-.563 2.515a51.682 51.682 0 01-1.498 4.049 28.74 28.74 0 01-2.009 3.736c-.729 1.137-1.481 1.721-2.255 1.753.124.327.303.652.538.975.235.323.252.765.054 1.327-1.531.505-2.891 1.114-4.08 1.826a17.299 17.299 0 01-3.742 1.979c-1.305.606-2.731.941-4.279 1.004-1.549.062-3.396-.417-5.541-1.438-.027-.664-.326-1.205-.897-1.625a6.994 6.994 0 00-1.878-1.254c-.571-.42-1.082-.731-1.533-.935-.456-.314-.688-.581-.697-.802-.549.133-.786-.246-.711-1.135.075-.889.509-1.128 1.301-.717-1.279-1.499-2.107-2.795-2.484-3.887-.27-1.208-.938-2.676-2.005-4.405.212-.23.418-.626.616-1.188.089-.558.179-1.06.272-1.507.093-.446.245-.785.457-1.015.213-.23.491-.186.836.132-.261-.986-.294-1.815-.1-2.488.194-.672.391-1.29.59-1.851a9.427 9.427 0 00.43-1.68c.089-.556-.102-1.158-.571-1.804 1.671-2.504 2.727-5.15 3.169-7.937.436-2.897.663-5.51.68-7.836.743-.806 1.362-1.938 1.857-3.398a22.196 22.196 0 001.318-4.374c.27-1.561.322-3.003.158-4.326-.058-1.438-.271-2.592-.638-3.463.088-.558.689-.748 1.804-.572.516-3.676.793-7.785.831-12.328.144-4.658.466-9.047.964-13.165.494-4.23 1.452-7.923 2.875-11.082 1.419-3.27 3.822-5.472 7.21-6.605.758 2.295 1.67 4.308 2.736 6.037a83.876 83.876 0 003.692 5.001 81.031 81.031 0 014.009 4.657c1.394 1.605 2.687 3.436 3.877 5.492-.025 2.106-.148 4.548-.368 7.326a121.34 121.34 0 01-.986 8.513 159.529 159.529 0 01-1.158 8.355c-.335 2.672-.686 4.957-1.052 6.854.133.549.423.87.87.962.557.088.688.582.392 1.48a154.63 154.63 0 018.22-2.16 239.382 239.382 0 008.552-2.173c2.849-.78 5.584-1.61 8.207-2.491 2.729-.997 5.23-2.15 7.503-3.46.379-4.336.924-8.678 1.634-13.026.711-4.349.642-8.777-.204-13.284a4.902 4.902 0 001.26-1.712c.305-.677.84-1.142 1.605-1.395-.638-2.078-.948-4.281-.931-6.608.016-2.327.314-4.554.893-6.682.689-2.132 1.668-3.944 2.937-5.436 1.375-1.606 3.049-2.67 5.022-3.193a32.462 32.462 0 013.386 5.679 343.181 343.181 0 012.902 6.03 283.967 283.967 0 003.22 5.685 18.446 18.446 0 004.335 4.477c.461 3.194.816 6.502 1.065 9.926.36 3.42.667 6.896.92 10.43a199.385 199.385 0 01-2.49 12.396c-.839 3.911-1.39 8.087-1.654 12.529a10.342 10.342 0 00-1.704 3.059 116.318 116.318 0 00-1.186 3.537 44.042 44.042 0 01-1.359 3.378 11.922 11.922 0 01-1.884 2.734c.496 1.31.603 2.58.32 3.81-.176 1.114.212 2.483 1.163 4.106zm49.282 2.495c.687 3.296.57 5.903-.349 7.824-.809 1.915-2.08 3.351-3.813 4.307-1.619 1.063-3.532 1.694-5.739 1.894-2.208.2-4.313.174-6.317-.077-1.169-1.504-2.242-3.399-3.221-5.686a135.852 135.852 0 01-2.776-7.032 266.817 266.817 0 01-2.458-7.377 888.207 888.207 0 00-1.754-6.41c.499-1.349.771-2.855.814-4.519.15-1.778.189-3.552.118-5.321a84.83 84.83 0 00-.049-5.315c.035-1.884.129-3.66.283-5.328.587-4.676 1.514-9.144 2.782-13.405a84.782 84.782 0 003.12-13.252c.181-1.004.033-1.94-.446-2.806-.367-.871-.456-1.699-.266-2.482.093-.447.413-.736.962-.87.544-.243.86-.643.948-1.2.283-1.23.298-2.228.046-2.993-.142-.77.041-1.719.549-2.847.517-.907 1.129-2.206 1.837-3.896.813-1.805 1.071-3.643.774-5.514a18.54 18.54 0 002.726-2.436c.849-.92 1.702-1.73 2.56-2.43a18.865 18.865 0 013.072-2.118c1.194-.602 2.62-.936 4.279-1.003.929 1.07 1.531 2.264 1.806 3.582a50.35 50.35 0 01.99 3.948 22.221 22.221 0 001.482 3.762c.597 1.083 1.573 1.93 2.927 2.54l.134 3.317c.053 1.327.162 2.652.326 3.975.16 1.212.428 2.364.805 3.456.482.978 1.172 1.615 2.071 1.91a545.822 545.822 0 00-5.004 15.987 157.315 157.315 0 00-3.51 15.926 108.018 108.018 0 00-1.52 15.846c-.007 5.317.597 10.665 1.811 16.043zm110.874-72.766c-2.765.112-5.742.453-8.931 1.025-3.193.462-6.329.976-9.408 1.543a148.3 148.3 0 01-6.436 1.091c-1.981.302-3.799.541-5.454.719-.676 2.464-1.363 4.652-2.061 6.563a82.424 82.424 0 01-2.267 5.575 91.705 91.705 0 00-2.254 5.906 136.062 136.062 0 00-1.742 6.218 60.344 60.344 0 00-2.619 5.09c-.606 1.465-1.092 3.146-1.458 5.044-1.26 1.712-2.184 3.522-2.771 5.428-.592 1.796-1.028 3.365-1.306 4.705l-.583 2.018c-.637.69-1.001 1.258-1.094 1.705-.097.337-.36.68-.789 1.03-.062 1.22-.4 2.452-1.014 3.695a9.517 9.517 0 00-.431 1.68c-.092.446-.134.78-.125 1.001.044 1.106-.203 1.836-.743 2.19.133.549.158 1.157.074 1.825l-.265 1.672c-.278 1.34-.346 2.396-.204 3.165.349.43.642.805.876 1.128.345.318.584.752.717 1.3.682.416 1.19.672 1.527.77.455.313 1.135.673 2.037 1.08l1.56 1.599c.683 3.184.288 5.748-1.185 7.69-1.574 2.168-4.351 3.333-8.332 3.494l-1.991.08c-.575-.53-.925-.959-1.049-1.287-.898-.296-1.628-.543-2.19-.742-.561-.199-1.077-.621-1.546-1.267a126.276 126.276 0 01-3.551-1.518l-1.526-.769-.08-1.991a12.087 12.087 0 01-1.959-3.243 43.196 43.196 0 01-.977-3.616 21.026 21.026 0 00-.943-2.787c-.257-.876-.62-1.636-1.089-2.282-.481-6.405-.091-11.848 1.168-16.33a285.33 285.33 0 013.963-12.954l2.386-6.742a76.695 76.695 0 002.034-7.227l1.426-1.719c.702-1.8 1.253-3.263 1.65-4.386L890.85 40c.3-.787.548-1.517.742-2.19.301-.787.55-1.462.749-2.024a9.34 9.34 0 00-1.818.24c-.553.022-1.104.1-1.652.233-.659.137-1.263.272-1.811.405l-1.659.067c-.774.032-1.329-.002-1.666-.099-1.194.602-2.51.933-3.947.99l-1.659.068-.995.04a1.475 1.475 0 00-.671-.14c-1.105.045-1.983.247-2.634.605l-3.815.155-1.659.067c-.221.009-.495.075-.822.199l-.83.034a20.13 20.13 0 01-2.495-.066c-.893-.185-1.849-.534-2.867-1.047-1.398-1.716-2.321-2.62-2.767-2.713L857 32.894a8.813 8.813 0 00-.571-1.805 52.952 52.952 0 01-.751-2.13 119.162 119.162 0 01-1.468-3.43c-.385-1.313-.613-2.854-.685-4.624.075-.889.269-1.561.583-2.017.314-.456.575-.854.783-1.195l.397-2.508 2.163.079 4.645-.188c3.539-.143 7.128-.399 10.769-.767 3.636-.48 7.382-.963 11.239-1.451l6.609-.932c2.313-.315 4.682-.632 7.106-.951a68.082 68.082 0 011.213-2.874l1.625-.896c1.986-.191 3.38.03 4.181.662.907.517 1.648 1.04 2.223 1.571l7.272-.958c2.53-.434 5.058-.924 7.584-1.47a393.637 393.637 0 0111.219-1.948c3.853-.599 7.549-.97 11.087-1.112a58.491 58.491 0 014.486-.015c1.442.052 2.776.164 4.001.337l1.706 1.094a6.98 6.98 0 001.401 1.77l2.057 1.58c1.376 1.162 2.761 2.546 4.155 4.151 1.395 1.605 1.99 4.018 1.788 7.239-.831 1.362-1.463 2.163-1.897 2.402l-1.412 2.051-1.666-.099a4.873 4.873 0 00-1.811.406 9.48 9.48 0 00-1.639.564l-1.3.718c-.438.128-.931.259-1.479.392l-2.489.1a9.317 9.317 0 00-1.831-.092z" fill="#fff"/></g><defs><filter id="filter0_dd" x=".021" y=".899" width="967.834" height="147.317" filterUnits="userSpaceOnUse" color-interpolation-filters="sRGB"><feFlood flood-opacity="0" result="BackgroundImageFix"/><feColorMatrix in="SourceAlpha" values="0 0 0 0 0 0 0 0 0 0 0 0 0 0 0 0 0 0 127 0"/><feOffset dy="4"/><feColorMatrix values="0 0 0 0 0.275 0 0 0 0 0.565 0 0 0 0 1 0 0 0 1 0"/><feBlend in2="BackgroundImageFix" result="effect1_dropShadow"/><feColorMatrix in="SourceAlpha" values="0 0 0 0 0 0 0 0 0 0 0 0 0 0 0 0 0 0 127 0"/><feOffset dx="4" dy="-3"/><feColorMatrix values="0 0 0 0 1 0 0 0 0 0.317647 0 0 0 0 0 0 0 0 1 0"/><feBlend in2="effect1_dropShadow" result="effect2_dropShadow"/><feBlend in="SourceGraphic" in2="effect2_dropShadow" result="shape"/></filter></defs></svg>